<?xml version="1.0" encoding="utf-8" standalone="no"?>
<!DOCTYPE svg PUBLIC "-//W3C//DTD SVG 1.1//EN"
  "http://www.w3.org/Graphics/SVG/1.1/DTD/svg11.dtd">
<svg xmlns:xlink="http://www.w3.org/1999/xlink" width="864pt" height="186.48pt" viewBox="0 0 864 186.48" xmlns="http://www.w3.org/2000/svg" version="1.1">
 <metadata>
  <rdf:RDF xmlns:dc="http://purl.org/dc/elements/1.1/" xmlns:cc="http://creativecommons.org/ns#" xmlns:rdf="http://www.w3.org/1999/02/22-rdf-syntax-ns#">
   <cc:Work>
    <dc:type rdf:resource="http://purl.org/dc/dcmitype/StillImage"/>
    <dc:date>2024-11-21T15:39:03.009130</dc:date>
    <dc:format>image/svg+xml</dc:format>
    <dc:creator>
     <cc:Agent>
      <dc:title>Matplotlib v3.8.1, https://matplotlib.org/</dc:title>
     </cc:Agent>
    </dc:creator>
   </cc:Work>
  </rdf:RDF>
 </metadata>
 <defs>
  <style type="text/css">*{stroke-linejoin: round; stroke-linecap: butt}</style>
 </defs>
 <g id="figure_1">
  <g id="patch_1">
   <path d="M 0 186.48 
L 864 186.48 
L 864 0 
L 0 0 
z
" style="fill: #ffffff"/>
  </g>
  <g id="axes_1">
   <g id="patch_2">
    <path d="M 42.1 158.6 
L 719.28 158.6 
L 719.28 29.76 
L 42.1 29.76 
z
" style="fill: #ffffff"/>
   </g>
   <g id="matplotlib.axis_1">
    <g id="xtick_1">
     <g id="line2d_1">
      <defs>
       <path id="m1841abfdfa" d="M 0 0 
L 0 3.5 
" style="stroke: #000000; stroke-width: 0.8"/>
      </defs>
      <g>
       <use xlink:href="#m1841abfdfa" x="72.880909" y="158.6" style="stroke: #000000; stroke-width: 0.8"/>
      </g>
     </g>
     <g id="text_1">
      <!-- 0 -->
      <g transform="translate(69.699659 173.198437) scale(0.1 -0.1)">
       <defs>
        <path id="DejaVuSans-30" d="M 2034 4250 
Q 1547 4250 1301 3770 
Q 1056 3291 1056 2328 
Q 1056 1369 1301 889 
Q 1547 409 2034 409 
Q 2525 409 2770 889 
Q 3016 1369 3016 2328 
Q 3016 3291 2770 3770 
Q 2525 4250 2034 4250 
z
M 2034 4750 
Q 2819 4750 3233 4129 
Q 3647 3509 3647 2328 
Q 3647 1150 3233 529 
Q 2819 -91 2034 -91 
Q 1250 -91 836 529 
Q 422 1150 422 2328 
Q 422 3509 836 4129 
Q 1250 4750 2034 4750 
z
" transform="scale(0.015625)"/>
       </defs>
       <use xlink:href="#DejaVuSans-30"/>
      </g>
     </g>
    </g>
    <g id="xtick_2">
     <g id="line2d_2">
      <g>
       <use xlink:href="#m1841abfdfa" x="150.219877" y="158.6" style="stroke: #000000; stroke-width: 0.8"/>
      </g>
     </g>
     <g id="text_2">
      <!-- 25 -->
      <g transform="translate(143.857377 173.198437) scale(0.1 -0.1)">
       <defs>
        <path id="DejaVuSans-32" d="M 1228 531 
L 3431 531 
L 3431 0 
L 469 0 
L 469 531 
Q 828 903 1448 1529 
Q 2069 2156 2228 2338 
Q 2531 2678 2651 2914 
Q 2772 3150 2772 3378 
Q 2772 3750 2511 3984 
Q 2250 4219 1831 4219 
Q 1534 4219 1204 4116 
Q 875 4013 500 3803 
L 500 4441 
Q 881 4594 1212 4672 
Q 1544 4750 1819 4750 
Q 2544 4750 2975 4387 
Q 3406 4025 3406 3419 
Q 3406 3131 3298 2873 
Q 3191 2616 2906 2266 
Q 2828 2175 2409 1742 
Q 1991 1309 1228 531 
z
" transform="scale(0.015625)"/>
        <path id="DejaVuSans-35" d="M 691 4666 
L 3169 4666 
L 3169 4134 
L 1269 4134 
L 1269 2991 
Q 1406 3038 1543 3061 
Q 1681 3084 1819 3084 
Q 2600 3084 3056 2656 
Q 3513 2228 3513 1497 
Q 3513 744 3044 326 
Q 2575 -91 1722 -91 
Q 1428 -91 1123 -41 
Q 819 9 494 109 
L 494 744 
Q 775 591 1075 516 
Q 1375 441 1709 441 
Q 2250 441 2565 725 
Q 2881 1009 2881 1497 
Q 2881 1984 2565 2268 
Q 2250 2553 1709 2553 
Q 1456 2553 1204 2497 
Q 953 2441 691 2322 
L 691 4666 
z
" transform="scale(0.015625)"/>
       </defs>
       <use xlink:href="#DejaVuSans-32"/>
       <use xlink:href="#DejaVuSans-35" x="63.623047"/>
      </g>
     </g>
    </g>
    <g id="xtick_3">
     <g id="line2d_3">
      <g>
       <use xlink:href="#m1841abfdfa" x="227.558844" y="158.6" style="stroke: #000000; stroke-width: 0.8"/>
      </g>
     </g>
     <g id="text_3">
      <!-- 50 -->
      <g transform="translate(221.196344 173.198437) scale(0.1 -0.1)">
       <use xlink:href="#DejaVuSans-35"/>
       <use xlink:href="#DejaVuSans-30" x="63.623047"/>
      </g>
     </g>
    </g>
    <g id="xtick_4">
     <g id="line2d_4">
      <g>
       <use xlink:href="#m1841abfdfa" x="304.897812" y="158.6" style="stroke: #000000; stroke-width: 0.8"/>
      </g>
     </g>
     <g id="text_4">
      <!-- 75 -->
      <g transform="translate(298.535312 173.198437) scale(0.1 -0.1)">
       <defs>
        <path id="DejaVuSans-37" d="M 525 4666 
L 3525 4666 
L 3525 4397 
L 1831 0 
L 1172 0 
L 2766 4134 
L 525 4134 
L 525 4666 
z
" transform="scale(0.015625)"/>
       </defs>
       <use xlink:href="#DejaVuSans-37"/>
       <use xlink:href="#DejaVuSans-35" x="63.623047"/>
      </g>
     </g>
    </g>
    <g id="xtick_5">
     <g id="line2d_5">
      <g>
       <use xlink:href="#m1841abfdfa" x="382.236779" y="158.6" style="stroke: #000000; stroke-width: 0.8"/>
      </g>
     </g>
     <g id="text_5">
      <!-- 100 -->
      <g transform="translate(372.693029 173.198437) scale(0.1 -0.1)">
       <defs>
        <path id="DejaVuSans-31" d="M 794 531 
L 1825 531 
L 1825 4091 
L 703 3866 
L 703 4441 
L 1819 4666 
L 2450 4666 
L 2450 531 
L 3481 531 
L 3481 0 
L 794 0 
L 794 531 
z
" transform="scale(0.015625)"/>
       </defs>
       <use xlink:href="#DejaVuSans-31"/>
       <use xlink:href="#DejaVuSans-30" x="63.623047"/>
       <use xlink:href="#DejaVuSans-30" x="127.246094"/>
      </g>
     </g>
    </g>
    <g id="xtick_6">
     <g id="line2d_6">
      <g>
       <use xlink:href="#m1841abfdfa" x="459.575747" y="158.6" style="stroke: #000000; stroke-width: 0.8"/>
      </g>
     </g>
     <g id="text_6">
      <!-- 125 -->
      <g transform="translate(450.031997 173.198437) scale(0.1 -0.1)">
       <use xlink:href="#DejaVuSans-31"/>
       <use xlink:href="#DejaVuSans-32" x="63.623047"/>
       <use xlink:href="#DejaVuSans-35" x="127.246094"/>
      </g>
     </g>
    </g>
    <g id="xtick_7">
     <g id="line2d_7">
      <g>
       <use xlink:href="#m1841abfdfa" x="536.914714" y="158.6" style="stroke: #000000; stroke-width: 0.8"/>
      </g>
     </g>
     <g id="text_7">
      <!-- 150 -->
      <g transform="translate(527.370964 173.198437) scale(0.1 -0.1)">
       <use xlink:href="#DejaVuSans-31"/>
       <use xlink:href="#DejaVuSans-35" x="63.623047"/>
       <use xlink:href="#DejaVuSans-30" x="127.246094"/>
      </g>
     </g>
    </g>
    <g id="xtick_8">
     <g id="line2d_8">
      <g>
       <use xlink:href="#m1841abfdfa" x="614.253682" y="158.6" style="stroke: #000000; stroke-width: 0.8"/>
      </g>
     </g>
     <g id="text_8">
      <!-- 175 -->
      <g transform="translate(604.709932 173.198437) scale(0.1 -0.1)">
       <use xlink:href="#DejaVuSans-31"/>
       <use xlink:href="#DejaVuSans-37" x="63.623047"/>
       <use xlink:href="#DejaVuSans-35" x="127.246094"/>
      </g>
     </g>
    </g>
    <g id="xtick_9">
     <g id="line2d_9">
      <g>
       <use xlink:href="#m1841abfdfa" x="691.59265" y="158.6" style="stroke: #000000; stroke-width: 0.8"/>
      </g>
     </g>
     <g id="text_9">
      <!-- 200 -->
      <g transform="translate(682.0489 173.198437) scale(0.1 -0.1)">
       <use xlink:href="#DejaVuSans-32"/>
       <use xlink:href="#DejaVuSans-30" x="63.623047"/>
       <use xlink:href="#DejaVuSans-30" x="127.246094"/>
      </g>
     </g>
    </g>
   </g>
   <g id="matplotlib.axis_2">
    <g id="ytick_1">
     <g id="line2d_10">
      <defs>
       <path id="m0a1fd4a782" d="M 0 0 
L -3.5 0 
" style="stroke: #000000; stroke-width: 0.8"/>
      </defs>
      <g>
       <use xlink:href="#m0a1fd4a782" x="42.1" y="139.67921" style="stroke: #000000; stroke-width: 0.8"/>
      </g>
     </g>
     <g id="text_10">
      <!-- −1.0 -->
      <g transform="translate(10.817188 143.478429) scale(0.1 -0.1)">
       <defs>
        <path id="DejaVuSans-2212" d="M 678 2272 
L 4684 2272 
L 4684 1741 
L 678 1741 
L 678 2272 
z
" transform="scale(0.015625)"/>
        <path id="DejaVuSans-2e" d="M 684 794 
L 1344 794 
L 1344 0 
L 684 0 
L 684 794 
z
" transform="scale(0.015625)"/>
       </defs>
       <use xlink:href="#DejaVuSans-2212"/>
       <use xlink:href="#DejaVuSans-31" x="83.789062"/>
       <use xlink:href="#DejaVuSans-2e" x="147.412109"/>
       <use xlink:href="#DejaVuSans-30" x="179.199219"/>
      </g>
     </g>
    </g>
    <g id="ytick_2">
     <g id="line2d_11">
      <g>
       <use xlink:href="#m0a1fd4a782" x="42.1" y="116.54511" style="stroke: #000000; stroke-width: 0.8"/>
      </g>
     </g>
     <g id="text_11">
      <!-- −0.5 -->
      <g transform="translate(10.817188 120.344329) scale(0.1 -0.1)">
       <use xlink:href="#DejaVuSans-2212"/>
       <use xlink:href="#DejaVuSans-30" x="83.789062"/>
       <use xlink:href="#DejaVuSans-2e" x="147.412109"/>
       <use xlink:href="#DejaVuSans-35" x="179.199219"/>
      </g>
     </g>
    </g>
    <g id="ytick_3">
     <g id="line2d_12">
      <g>
       <use xlink:href="#m0a1fd4a782" x="42.1" y="93.411011" style="stroke: #000000; stroke-width: 0.8"/>
      </g>
     </g>
     <g id="text_12">
      <!-- 0.0 -->
      <g transform="translate(19.196875 97.21023) scale(0.1 -0.1)">
       <use xlink:href="#DejaVuSans-30"/>
       <use xlink:href="#DejaVuSans-2e" x="63.623047"/>
       <use xlink:href="#DejaVuSans-30" x="95.410156"/>
      </g>
     </g>
    </g>
    <g id="ytick_4">
     <g id="line2d_13">
      <g>
       <use xlink:href="#m0a1fd4a782" x="42.1" y="70.276912" style="stroke: #000000; stroke-width: 0.8"/>
      </g>
     </g>
     <g id="text_13">
      <!-- 0.5 -->
      <g transform="translate(19.196875 74.07613) scale(0.1 -0.1)">
       <use xlink:href="#DejaVuSans-30"/>
       <use xlink:href="#DejaVuSans-2e" x="63.623047"/>
       <use xlink:href="#DejaVuSans-35" x="95.410156"/>
      </g>
     </g>
    </g>
    <g id="ytick_5">
     <g id="line2d_14">
      <g>
       <use xlink:href="#m0a1fd4a782" x="42.1" y="47.142812" style="stroke: #000000; stroke-width: 0.8"/>
      </g>
     </g>
     <g id="text_14">
      <!-- 1.0 -->
      <g transform="translate(19.196875 50.942031) scale(0.1 -0.1)">
       <use xlink:href="#DejaVuSans-31"/>
       <use xlink:href="#DejaVuSans-2e" x="63.623047"/>
       <use xlink:href="#DejaVuSans-30" x="95.410156"/>
      </g>
     </g>
    </g>
   </g>
   <g id="line2d_15">
    <path d="M 72.880909 91.257953 
L 75.974468 86.93505 
L 79.068026 83.464649 
L 82.161585 82.086473 
L 85.255144 82.405615 
L 88.348703 76.106098 
L 91.442261 88.098712 
L 94.53582 71.053874 
L 97.629379 80.331545 
L 100.722937 66.038243 
L 103.816496 73.659134 
L 106.910055 70.527408 
L 110.003614 59.799352 
L 113.097172 61.026513 
L 116.190731 60.379669 
L 119.28429 61.577216 
L 122.377848 56.312028 
L 125.471407 59.504246 
L 128.564966 55.360901 
L 131.658524 59.587681 
L 134.752083 58.788058 
L 137.845642 59.986027 
L 140.939201 53.882432 
L 144.032759 53.655102 
L 147.126318 51.340771 
L 150.219877 54.758688 
L 153.313435 53.859968 
L 156.406994 48.848579 
L 159.500553 46.378258 
L 162.594111 47.789663 
L 165.68767 38.451393 
L 168.781229 48.944893 
L 171.874788 43.213542 
L 174.968346 53.559112 
L 178.061905 50.558134 
L 181.155464 49.994379 
L 184.249022 45.803059 
L 187.342581 37.050673 
L 190.43614 42.26559 
L 193.529698 51.883505 
L 196.623257 49.092983 
L 199.716816 51.496246 
L 202.810375 58.49049 
L 205.903933 56.011333 
L 208.997492 62.70008 
L 212.091051 61.590265 
L 215.184609 59.626998 
L 218.278168 63.390218 
L 221.371727 57.601027 
L 227.558844 61.763871 
L 230.652403 67.457551 
L 233.745962 74.319786 
L 236.83952 64.92506 
L 239.933079 70.277106 
L 243.026638 71.954309 
L 246.120196 70.99168 
L 249.213755 74.597471 
L 252.307314 92.182104 
L 255.400873 86.685864 
L 258.494431 85.419131 
L 261.58799 88.168781 
L 264.681549 92.625773 
L 267.775107 93.349909 
L 270.868666 98.0268 
L 273.962225 101.942514 
L 277.055783 103.705845 
L 280.149342 102.131623 
L 283.242901 106.92996 
L 286.33646 108.509233 
L 289.430018 111.452073 
L 292.523577 119.309841 
L 295.617136 118.384345 
L 298.710694 110.982681 
L 301.804253 123.955467 
L 304.897812 121.774304 
L 307.99137 123.398362 
L 311.084929 124.558841 
L 314.178488 126.619457 
L 317.272047 125.730381 
L 320.365605 133.298924 
L 323.459164 130.090171 
L 326.552723 132.568034 
L 329.646281 131.13947 
L 332.73984 139.8161 
L 335.833399 138.438116 
L 338.926958 138.876459 
L 342.020516 137.98282 
L 345.114075 143.687983 
L 348.207634 141.798208 
L 351.301192 131.398831 
L 354.394751 144.117134 
L 357.48831 130.297444 
L 360.581868 125.928279 
L 363.675427 139.878861 
L 366.768986 152.743636 
L 369.862545 140.797766 
L 372.956103 131.687047 
L 376.049662 136.792452 
L 379.143221 132.203124 
L 382.236779 144.435087 
L 385.330338 139.55957 
L 388.423897 131.701704 
L 391.517455 138.082672 
L 394.611014 138.804984 
L 397.704573 136.267868 
L 400.798132 130.947124 
L 403.89169 126.684701 
L 406.985249 127.111491 
L 410.078808 134.270771 
L 413.172366 120.097266 
L 416.265925 130.51012 
L 419.359484 118.26593 
L 422.453042 124.374086 
L 425.546601 119.218888 
L 428.64016 109.606388 
L 431.733719 111.960877 
L 434.827277 111.008834 
L 441.014395 110.110174 
L 444.107953 105.088728 
L 447.201512 101.688241 
L 450.295071 100.449666 
L 453.38863 107.791335 
L 456.482188 96.654611 
L 459.575747 88.976329 
L 462.669306 89.398491 
L 465.762864 94.419472 
L 468.856423 88.765222 
L 471.949982 92.910328 
L 475.04354 82.644295 
L 478.137099 76.507753 
L 481.230658 80.248159 
L 484.324217 70.829453 
L 487.417775 71.4552 
L 490.511334 67.172455 
L 493.604893 70.237898 
L 496.698451 70.421289 
L 499.79201 70.332451 
L 502.885569 69.386371 
L 505.979127 61.636636 
L 509.072686 66.434499 
L 512.166245 51.723422 
L 515.259804 64.440453 
L 518.353362 56.06313 
L 521.446921 53.009715 
L 524.54048 56.906948 
L 527.634038 61.748012 
L 530.727597 55.097907 
L 533.821156 48.894204 
L 536.914714 50.991883 
L 540.008273 35.616364 
L 543.101832 45.337306 
L 546.195391 52.646892 
L 549.288949 43.870951 
L 552.382508 41.852999 
L 555.476067 43.497433 
L 558.569625 49.107389 
L 561.663184 44.431073 
L 564.756743 47.443432 
L 567.850302 44.063414 
L 570.94386 49.042088 
L 574.037419 47.596413 
L 577.130978 55.797308 
L 580.224536 55.422008 
L 586.411654 49.393634 
L 592.598771 50.470073 
L 595.69233 53.351728 
L 598.785889 57.750386 
L 601.879447 57.799873 
L 604.973006 58.495932 
L 608.066565 64.23063 
L 611.160123 69.073216 
L 614.253682 72.63074 
L 617.347241 68.559279 
L 620.440799 68.73709 
L 623.534358 72.09467 
L 626.627917 72.074323 
L 629.721476 82.612479 
L 632.815034 76.740459 
L 635.908593 85.987702 
L 639.002152 81.693948 
L 642.09571 83.881207 
L 645.189269 95.183625 
L 648.282828 90.13888 
L 651.376386 89.034746 
L 654.469945 96.402164 
L 657.563504 92.986132 
L 660.657063 99.299168 
L 663.750621 96.787489 
L 666.84418 106.683846 
L 669.937739 105.164499 
L 673.031297 101.732407 
L 676.124856 115.836828 
L 679.218415 115.464107 
L 682.311974 113.405281 
L 685.405532 110.893631 
L 688.499091 118.180228 
L 688.499091 118.180228 
" clip-path="url(#pa59029f104)" style="fill: none; stroke: #808080; stroke-opacity: 0.7; stroke-width: 1.5; stroke-linecap: square"/>
   </g>
   <g id="line2d_16">
    <path d="M 134.752083 58.788058 
L 137.845642 59.986027 
L 140.939201 53.882432 
L 144.032759 53.655102 
L 147.126318 51.340771 
L 150.219877 54.758688 
L 153.313435 53.859968 
L 156.406994 48.848579 
L 159.500553 46.378258 
L 162.594111 47.789663 
" clip-path="url(#pa59029f104)" style="fill: none; stroke: #0000ff; stroke-opacity: 0.2; stroke-width: 6; stroke-linecap: round"/>
   </g>
   <g id="line2d_17">
    <path d="M 134.752083 58.788058 
L 137.845642 59.986027 
L 140.939201 53.882432 
L 144.032759 53.655102 
L 147.126318 51.340771 
L 150.219877 54.758688 
L 153.313435 53.859968 
L 156.406994 48.848579 
L 159.500553 46.378258 
L 162.594111 47.789663 
" clip-path="url(#pa59029f104)" style="fill: none; stroke: #0000ff; stroke-width: 2.5; stroke-linecap: square"/>
   </g>
   <g id="patch_3">
    <path d="M 42.1 158.6 
L 42.1 29.76 
" style="fill: none; stroke: #000000; stroke-width: 0.8; stroke-linejoin: miter; stroke-linecap: square"/>
   </g>
   <g id="patch_4">
    <path d="M 719.28 158.6 
L 719.28 29.76 
" style="fill: none; stroke: #000000; stroke-width: 0.8; stroke-linejoin: miter; stroke-linecap: square"/>
   </g>
   <g id="patch_5">
    <path d="M 42.1 158.6 
L 719.28 158.6 
" style="fill: none; stroke: #000000; stroke-width: 0.8; stroke-linejoin: miter; stroke-linecap: square"/>
   </g>
   <g id="patch_6">
    <path d="M 42.1 29.76 
L 719.28 29.76 
" style="fill: none; stroke: #000000; stroke-width: 0.8; stroke-linejoin: miter; stroke-linecap: square"/>
   </g>
   <g id="text_15">
    <!-- Foo | Subsequence 20_10 | [20:30] -->
    <g transform="translate(241.04875 23.76) scale(0.16 -0.16)">
     <defs>
      <path id="DejaVuSans-46" d="M 628 4666 
L 3309 4666 
L 3309 4134 
L 1259 4134 
L 1259 2759 
L 3109 2759 
L 3109 2228 
L 1259 2228 
L 1259 0 
L 628 0 
L 628 4666 
z
" transform="scale(0.015625)"/>
      <path id="DejaVuSans-6f" d="M 1959 3097 
Q 1497 3097 1228 2736 
Q 959 2375 959 1747 
Q 959 1119 1226 758 
Q 1494 397 1959 397 
Q 2419 397 2687 759 
Q 2956 1122 2956 1747 
Q 2956 2369 2687 2733 
Q 2419 3097 1959 3097 
z
M 1959 3584 
Q 2709 3584 3137 3096 
Q 3566 2609 3566 1747 
Q 3566 888 3137 398 
Q 2709 -91 1959 -91 
Q 1206 -91 779 398 
Q 353 888 353 1747 
Q 353 2609 779 3096 
Q 1206 3584 1959 3584 
z
" transform="scale(0.015625)"/>
      <path id="DejaVuSans-20" transform="scale(0.015625)"/>
      <path id="DejaVuSans-7c" d="M 1344 4891 
L 1344 -1509 
L 813 -1509 
L 813 4891 
L 1344 4891 
z
" transform="scale(0.015625)"/>
      <path id="DejaVuSans-53" d="M 3425 4513 
L 3425 3897 
Q 3066 4069 2747 4153 
Q 2428 4238 2131 4238 
Q 1616 4238 1336 4038 
Q 1056 3838 1056 3469 
Q 1056 3159 1242 3001 
Q 1428 2844 1947 2747 
L 2328 2669 
Q 3034 2534 3370 2195 
Q 3706 1856 3706 1288 
Q 3706 609 3251 259 
Q 2797 -91 1919 -91 
Q 1588 -91 1214 -16 
Q 841 59 441 206 
L 441 856 
Q 825 641 1194 531 
Q 1563 422 1919 422 
Q 2459 422 2753 634 
Q 3047 847 3047 1241 
Q 3047 1584 2836 1778 
Q 2625 1972 2144 2069 
L 1759 2144 
Q 1053 2284 737 2584 
Q 422 2884 422 3419 
Q 422 4038 858 4394 
Q 1294 4750 2059 4750 
Q 2388 4750 2728 4690 
Q 3069 4631 3425 4513 
z
" transform="scale(0.015625)"/>
      <path id="DejaVuSans-75" d="M 544 1381 
L 544 3500 
L 1119 3500 
L 1119 1403 
Q 1119 906 1312 657 
Q 1506 409 1894 409 
Q 2359 409 2629 706 
Q 2900 1003 2900 1516 
L 2900 3500 
L 3475 3500 
L 3475 0 
L 2900 0 
L 2900 538 
Q 2691 219 2414 64 
Q 2138 -91 1772 -91 
Q 1169 -91 856 284 
Q 544 659 544 1381 
z
M 1991 3584 
L 1991 3584 
z
" transform="scale(0.015625)"/>
      <path id="DejaVuSans-62" d="M 3116 1747 
Q 3116 2381 2855 2742 
Q 2594 3103 2138 3103 
Q 1681 3103 1420 2742 
Q 1159 2381 1159 1747 
Q 1159 1113 1420 752 
Q 1681 391 2138 391 
Q 2594 391 2855 752 
Q 3116 1113 3116 1747 
z
M 1159 2969 
Q 1341 3281 1617 3432 
Q 1894 3584 2278 3584 
Q 2916 3584 3314 3078 
Q 3713 2572 3713 1747 
Q 3713 922 3314 415 
Q 2916 -91 2278 -91 
Q 1894 -91 1617 61 
Q 1341 213 1159 525 
L 1159 0 
L 581 0 
L 581 4863 
L 1159 4863 
L 1159 2969 
z
" transform="scale(0.015625)"/>
      <path id="DejaVuSans-73" d="M 2834 3397 
L 2834 2853 
Q 2591 2978 2328 3040 
Q 2066 3103 1784 3103 
Q 1356 3103 1142 2972 
Q 928 2841 928 2578 
Q 928 2378 1081 2264 
Q 1234 2150 1697 2047 
L 1894 2003 
Q 2506 1872 2764 1633 
Q 3022 1394 3022 966 
Q 3022 478 2636 193 
Q 2250 -91 1575 -91 
Q 1294 -91 989 -36 
Q 684 19 347 128 
L 347 722 
Q 666 556 975 473 
Q 1284 391 1588 391 
Q 1994 391 2212 530 
Q 2431 669 2431 922 
Q 2431 1156 2273 1281 
Q 2116 1406 1581 1522 
L 1381 1569 
Q 847 1681 609 1914 
Q 372 2147 372 2553 
Q 372 3047 722 3315 
Q 1072 3584 1716 3584 
Q 2034 3584 2315 3537 
Q 2597 3491 2834 3397 
z
" transform="scale(0.015625)"/>
      <path id="DejaVuSans-65" d="M 3597 1894 
L 3597 1613 
L 953 1613 
Q 991 1019 1311 708 
Q 1631 397 2203 397 
Q 2534 397 2845 478 
Q 3156 559 3463 722 
L 3463 178 
Q 3153 47 2828 -22 
Q 2503 -91 2169 -91 
Q 1331 -91 842 396 
Q 353 884 353 1716 
Q 353 2575 817 3079 
Q 1281 3584 2069 3584 
Q 2775 3584 3186 3129 
Q 3597 2675 3597 1894 
z
M 3022 2063 
Q 3016 2534 2758 2815 
Q 2500 3097 2075 3097 
Q 1594 3097 1305 2825 
Q 1016 2553 972 2059 
L 3022 2063 
z
" transform="scale(0.015625)"/>
      <path id="DejaVuSans-71" d="M 947 1747 
Q 947 1113 1208 752 
Q 1469 391 1925 391 
Q 2381 391 2643 752 
Q 2906 1113 2906 1747 
Q 2906 2381 2643 2742 
Q 2381 3103 1925 3103 
Q 1469 3103 1208 2742 
Q 947 2381 947 1747 
z
M 2906 525 
Q 2725 213 2448 61 
Q 2172 -91 1784 -91 
Q 1150 -91 751 415 
Q 353 922 353 1747 
Q 353 2572 751 3078 
Q 1150 3584 1784 3584 
Q 2172 3584 2448 3432 
Q 2725 3281 2906 2969 
L 2906 3500 
L 3481 3500 
L 3481 -1331 
L 2906 -1331 
L 2906 525 
z
" transform="scale(0.015625)"/>
      <path id="DejaVuSans-6e" d="M 3513 2113 
L 3513 0 
L 2938 0 
L 2938 2094 
Q 2938 2591 2744 2837 
Q 2550 3084 2163 3084 
Q 1697 3084 1428 2787 
Q 1159 2491 1159 1978 
L 1159 0 
L 581 0 
L 581 3500 
L 1159 3500 
L 1159 2956 
Q 1366 3272 1645 3428 
Q 1925 3584 2291 3584 
Q 2894 3584 3203 3211 
Q 3513 2838 3513 2113 
z
" transform="scale(0.015625)"/>
      <path id="DejaVuSans-63" d="M 3122 3366 
L 3122 2828 
Q 2878 2963 2633 3030 
Q 2388 3097 2138 3097 
Q 1578 3097 1268 2742 
Q 959 2388 959 1747 
Q 959 1106 1268 751 
Q 1578 397 2138 397 
Q 2388 397 2633 464 
Q 2878 531 3122 666 
L 3122 134 
Q 2881 22 2623 -34 
Q 2366 -91 2075 -91 
Q 1284 -91 818 406 
Q 353 903 353 1747 
Q 353 2603 823 3093 
Q 1294 3584 2113 3584 
Q 2378 3584 2631 3529 
Q 2884 3475 3122 3366 
z
" transform="scale(0.015625)"/>
      <path id="DejaVuSans-5f" d="M 3263 -1063 
L 3263 -1509 
L -63 -1509 
L -63 -1063 
L 3263 -1063 
z
" transform="scale(0.015625)"/>
      <path id="DejaVuSans-5b" d="M 550 4863 
L 1875 4863 
L 1875 4416 
L 1125 4416 
L 1125 -397 
L 1875 -397 
L 1875 -844 
L 550 -844 
L 550 4863 
z
" transform="scale(0.015625)"/>
      <path id="DejaVuSans-3a" d="M 750 794 
L 1409 794 
L 1409 0 
L 750 0 
L 750 794 
z
M 750 3309 
L 1409 3309 
L 1409 2516 
L 750 2516 
L 750 3309 
z
" transform="scale(0.015625)"/>
      <path id="DejaVuSans-33" d="M 2597 2516 
Q 3050 2419 3304 2112 
Q 3559 1806 3559 1356 
Q 3559 666 3084 287 
Q 2609 -91 1734 -91 
Q 1441 -91 1130 -33 
Q 819 25 488 141 
L 488 750 
Q 750 597 1062 519 
Q 1375 441 1716 441 
Q 2309 441 2620 675 
Q 2931 909 2931 1356 
Q 2931 1769 2642 2001 
Q 2353 2234 1838 2234 
L 1294 2234 
L 1294 2753 
L 1863 2753 
Q 2328 2753 2575 2939 
Q 2822 3125 2822 3475 
Q 2822 3834 2567 4026 
Q 2313 4219 1838 4219 
Q 1578 4219 1281 4162 
Q 984 4106 628 3988 
L 628 4550 
Q 988 4650 1302 4700 
Q 1616 4750 1894 4750 
Q 2613 4750 3031 4423 
Q 3450 4097 3450 3541 
Q 3450 3153 3228 2886 
Q 3006 2619 2597 2516 
z
" transform="scale(0.015625)"/>
      <path id="DejaVuSans-5d" d="M 1947 4863 
L 1947 -844 
L 622 -844 
L 622 -397 
L 1369 -397 
L 1369 4416 
L 622 4416 
L 622 4863 
L 1947 4863 
z
" transform="scale(0.015625)"/>
     </defs>
     <use xlink:href="#DejaVuSans-46"/>
     <use xlink:href="#DejaVuSans-6f" x="53.894531"/>
     <use xlink:href="#DejaVuSans-6f" x="115.076172"/>
     <use xlink:href="#DejaVuSans-20" x="176.257812"/>
     <use xlink:href="#DejaVuSans-7c" x="208.044922"/>
     <use xlink:href="#DejaVuSans-20" x="241.736328"/>
     <use xlink:href="#DejaVuSans-53" x="273.523438"/>
     <use xlink:href="#DejaVuSans-75" x="337"/>
     <use xlink:href="#DejaVuSans-62" x="400.378906"/>
     <use xlink:href="#DejaVuSans-73" x="463.855469"/>
     <use xlink:href="#DejaVuSans-65" x="515.955078"/>
     <use xlink:href="#DejaVuSans-71" x="577.478516"/>
     <use xlink:href="#DejaVuSans-75" x="640.955078"/>
     <use xlink:href="#DejaVuSans-65" x="704.333984"/>
     <use xlink:href="#DejaVuSans-6e" x="765.857422"/>
     <use xlink:href="#DejaVuSans-63" x="829.236328"/>
     <use xlink:href="#DejaVuSans-65" x="884.216797"/>
     <use xlink:href="#DejaVuSans-20" x="945.740234"/>
     <use xlink:href="#DejaVuSans-32" x="977.527344"/>
     <use xlink:href="#DejaVuSans-30" x="1041.150391"/>
     <use xlink:href="#DejaVuSans-5f" x="1104.773438"/>
     <use xlink:href="#DejaVuSans-31" x="1154.773438"/>
     <use xlink:href="#DejaVuSans-30" x="1218.396484"/>
     <use xlink:href="#DejaVuSans-20" x="1282.019531"/>
     <use xlink:href="#DejaVuSans-7c" x="1313.806641"/>
     <use xlink:href="#DejaVuSans-20" x="1347.498047"/>
     <use xlink:href="#DejaVuSans-5b" x="1379.285156"/>
     <use xlink:href="#DejaVuSans-32" x="1418.298828"/>
     <use xlink:href="#DejaVuSans-30" x="1481.921875"/>
     <use xlink:href="#DejaVuSans-3a" x="1545.544922"/>
     <use xlink:href="#DejaVuSans-33" x="1579.236328"/>
     <use xlink:href="#DejaVuSans-30" x="1642.859375"/>
     <use xlink:href="#DejaVuSans-5d" x="1706.482422"/>
    </g>
   </g>
   <g id="legend_1">
    <g id="patch_7">
     <path d="M 753.491 103.019063 
L 852.716 103.019063 
Q 854.716 103.019063 854.716 101.019063 
L 854.716 87.340937 
Q 854.716 85.340937 852.716 85.340937 
L 753.491 85.340937 
Q 751.491 85.340937 751.491 87.340937 
L 751.491 101.019063 
Q 751.491 103.019063 753.491 103.019063 
z
" style="fill: #ffffff; opacity: 0.8; stroke: #cccccc; stroke-linejoin: miter"/>
    </g>
    <g id="line2d_18">
     <path d="M 755.491 93.439375 
L 765.491 93.439375 
L 775.491 93.439375 
" style="fill: none; stroke: #0000ff; stroke-width: 2.5; stroke-linecap: square"/>
    </g>
    <g id="text_16">
     <!-- Subsequence -->
     <g transform="translate(783.491 96.939375) scale(0.1 -0.1)">
      <use xlink:href="#DejaVuSans-53"/>
      <use xlink:href="#DejaVuSans-75" x="63.476562"/>
      <use xlink:href="#DejaVuSans-62" x="126.855469"/>
      <use xlink:href="#DejaVuSans-73" x="190.332031"/>
      <use xlink:href="#DejaVuSans-65" x="242.431641"/>
      <use xlink:href="#DejaVuSans-71" x="303.955078"/>
      <use xlink:href="#DejaVuSans-75" x="367.431641"/>
      <use xlink:href="#DejaVuSans-65" x="430.810547"/>
      <use xlink:href="#DejaVuSans-6e" x="492.333984"/>
      <use xlink:href="#DejaVuSans-63" x="555.712891"/>
      <use xlink:href="#DejaVuSans-65" x="610.693359"/>
     </g>
    </g>
   </g>
  </g>
 </g>
 <defs>
  <clipPath id="pa59029f104">
   <rect x="42.1" y="29.76" width="677.18" height="128.84"/>
  </clipPath>
 </defs>
</svg>
