<?xml version="1.0" encoding="utf-8" standalone="no"?>
<!DOCTYPE svg PUBLIC "-//W3C//DTD SVG 1.1//EN"
  "http://www.w3.org/Graphics/SVG/1.1/DTD/svg11.dtd">
<svg xmlns:xlink="http://www.w3.org/1999/xlink" width="864pt" height="186.48pt" viewBox="0 0 864 186.48" xmlns="http://www.w3.org/2000/svg" version="1.1">
 <metadata>
  <rdf:RDF xmlns:dc="http://purl.org/dc/elements/1.1/" xmlns:cc="http://creativecommons.org/ns#" xmlns:rdf="http://www.w3.org/1999/02/22-rdf-syntax-ns#">
   <cc:Work>
    <dc:type rdf:resource="http://purl.org/dc/dcmitype/StillImage"/>
    <dc:date>2024-11-21T14:01:00.928783</dc:date>
    <dc:format>image/svg+xml</dc:format>
    <dc:creator>
     <cc:Agent>
      <dc:title>Matplotlib v3.8.1, https://matplotlib.org/</dc:title>
     </cc:Agent>
    </dc:creator>
   </cc:Work>
  </rdf:RDF>
 </metadata>
 <defs>
  <style type="text/css">*{stroke-linejoin: round; stroke-linecap: butt}</style>
 </defs>
 <g id="figure_1">
  <g id="patch_1">
   <path d="M 0 186.48 
L 864 186.48 
L 864 0 
L 0 0 
z
" style="fill: #ffffff"/>
  </g>
  <g id="axes_1">
   <g id="patch_2">
    <path d="M 32.56 158.6 
L 853.2 158.6 
L 853.2 32.64 
L 32.56 32.64 
z
" style="fill: #ffffff"/>
   </g>
   <g id="matplotlib.axis_1">
    <g id="xtick_1">
     <g id="line2d_1">
      <defs>
       <path id="mcd638972a3" d="M 0 0 
L 0 3.5 
" style="stroke: #000000; stroke-width: 0.8"/>
      </defs>
      <g>
       <use xlink:href="#mcd638972a3" x="69.861818" y="158.6" style="stroke: #000000; stroke-width: 0.8"/>
      </g>
     </g>
     <g id="text_1">
      <!-- 0 -->
      <g transform="translate(66.680568 173.198437) scale(0.1 -0.1)">
       <defs>
        <path id="DejaVuSans-30" d="M 2034 4250 
Q 1547 4250 1301 3770 
Q 1056 3291 1056 2328 
Q 1056 1369 1301 889 
Q 1547 409 2034 409 
Q 2525 409 2770 889 
Q 3016 1369 3016 2328 
Q 3016 3291 2770 3770 
Q 2525 4250 2034 4250 
z
M 2034 4750 
Q 2819 4750 3233 4129 
Q 3647 3509 3647 2328 
Q 3647 1150 3233 529 
Q 2819 -91 2034 -91 
Q 1250 -91 836 529 
Q 422 1150 422 2328 
Q 422 3509 836 4129 
Q 1250 4750 2034 4750 
z
" transform="scale(0.015625)"/>
       </defs>
       <use xlink:href="#DejaVuSans-30"/>
      </g>
     </g>
    </g>
    <g id="xtick_2">
     <g id="line2d_2">
      <g>
       <use xlink:href="#mcd638972a3" x="236.01691" y="158.6" style="stroke: #000000; stroke-width: 0.8"/>
      </g>
     </g>
     <g id="text_2">
      <!-- 100 -->
      <g transform="translate(226.47316 173.198437) scale(0.1 -0.1)">
       <defs>
        <path id="DejaVuSans-31" d="M 794 531 
L 1825 531 
L 1825 4091 
L 703 3866 
L 703 4441 
L 1819 4666 
L 2450 4666 
L 2450 531 
L 3481 531 
L 3481 0 
L 794 0 
L 794 531 
z
" transform="scale(0.015625)"/>
       </defs>
       <use xlink:href="#DejaVuSans-31"/>
       <use xlink:href="#DejaVuSans-30" x="63.623047"/>
       <use xlink:href="#DejaVuSans-30" x="127.246094"/>
      </g>
     </g>
    </g>
    <g id="xtick_3">
     <g id="line2d_3">
      <g>
       <use xlink:href="#mcd638972a3" x="402.172002" y="158.6" style="stroke: #000000; stroke-width: 0.8"/>
      </g>
     </g>
     <g id="text_3">
      <!-- 200 -->
      <g transform="translate(392.628252 173.198437) scale(0.1 -0.1)">
       <defs>
        <path id="DejaVuSans-32" d="M 1228 531 
L 3431 531 
L 3431 0 
L 469 0 
L 469 531 
Q 828 903 1448 1529 
Q 2069 2156 2228 2338 
Q 2531 2678 2651 2914 
Q 2772 3150 2772 3378 
Q 2772 3750 2511 3984 
Q 2250 4219 1831 4219 
Q 1534 4219 1204 4116 
Q 875 4013 500 3803 
L 500 4441 
Q 881 4594 1212 4672 
Q 1544 4750 1819 4750 
Q 2544 4750 2975 4387 
Q 3406 4025 3406 3419 
Q 3406 3131 3298 2873 
Q 3191 2616 2906 2266 
Q 2828 2175 2409 1742 
Q 1991 1309 1228 531 
z
" transform="scale(0.015625)"/>
       </defs>
       <use xlink:href="#DejaVuSans-32"/>
       <use xlink:href="#DejaVuSans-30" x="63.623047"/>
       <use xlink:href="#DejaVuSans-30" x="127.246094"/>
      </g>
     </g>
    </g>
    <g id="xtick_4">
     <g id="line2d_4">
      <g>
       <use xlink:href="#mcd638972a3" x="568.327095" y="158.6" style="stroke: #000000; stroke-width: 0.8"/>
      </g>
     </g>
     <g id="text_4">
      <!-- 300 -->
      <g transform="translate(558.783345 173.198437) scale(0.1 -0.1)">
       <defs>
        <path id="DejaVuSans-33" d="M 2597 2516 
Q 3050 2419 3304 2112 
Q 3559 1806 3559 1356 
Q 3559 666 3084 287 
Q 2609 -91 1734 -91 
Q 1441 -91 1130 -33 
Q 819 25 488 141 
L 488 750 
Q 750 597 1062 519 
Q 1375 441 1716 441 
Q 2309 441 2620 675 
Q 2931 909 2931 1356 
Q 2931 1769 2642 2001 
Q 2353 2234 1838 2234 
L 1294 2234 
L 1294 2753 
L 1863 2753 
Q 2328 2753 2575 2939 
Q 2822 3125 2822 3475 
Q 2822 3834 2567 4026 
Q 2313 4219 1838 4219 
Q 1578 4219 1281 4162 
Q 984 4106 628 3988 
L 628 4550 
Q 988 4650 1302 4700 
Q 1616 4750 1894 4750 
Q 2613 4750 3031 4423 
Q 3450 4097 3450 3541 
Q 3450 3153 3228 2886 
Q 3006 2619 2597 2516 
z
" transform="scale(0.015625)"/>
       </defs>
       <use xlink:href="#DejaVuSans-33"/>
       <use xlink:href="#DejaVuSans-30" x="63.623047"/>
       <use xlink:href="#DejaVuSans-30" x="127.246094"/>
      </g>
     </g>
    </g>
    <g id="xtick_5">
     <g id="line2d_5">
      <g>
       <use xlink:href="#mcd638972a3" x="734.482187" y="158.6" style="stroke: #000000; stroke-width: 0.8"/>
      </g>
     </g>
     <g id="text_5">
      <!-- 400 -->
      <g transform="translate(724.938437 173.198437) scale(0.1 -0.1)">
       <defs>
        <path id="DejaVuSans-34" d="M 2419 4116 
L 825 1625 
L 2419 1625 
L 2419 4116 
z
M 2253 4666 
L 3047 4666 
L 3047 1625 
L 3713 1625 
L 3713 1100 
L 3047 1100 
L 3047 0 
L 2419 0 
L 2419 1100 
L 313 1100 
L 313 1709 
L 2253 4666 
z
" transform="scale(0.015625)"/>
       </defs>
       <use xlink:href="#DejaVuSans-34"/>
       <use xlink:href="#DejaVuSans-30" x="63.623047"/>
       <use xlink:href="#DejaVuSans-30" x="127.246094"/>
      </g>
     </g>
    </g>
   </g>
   <g id="matplotlib.axis_2">
    <g id="ytick_1">
     <g id="line2d_6">
      <defs>
       <path id="mcdcbcab9a6" d="M 0 0 
L -3.5 0 
" style="stroke: #000000; stroke-width: 0.8"/>
      </defs>
      <g>
       <use xlink:href="#mcdcbcab9a6" x="32.56" y="147.486253" style="stroke: #000000; stroke-width: 0.8"/>
      </g>
     </g>
     <g id="text_6">
      <!-- −2 -->
      <g transform="translate(10.817813 151.285472) scale(0.1 -0.1)">
       <defs>
        <path id="DejaVuSans-2212" d="M 678 2272 
L 4684 2272 
L 4684 1741 
L 678 1741 
L 678 2272 
z
" transform="scale(0.015625)"/>
       </defs>
       <use xlink:href="#DejaVuSans-2212"/>
       <use xlink:href="#DejaVuSans-32" x="83.789062"/>
      </g>
     </g>
    </g>
    <g id="ytick_2">
     <g id="line2d_7">
      <g>
       <use xlink:href="#mcdcbcab9a6" x="32.56" y="121.619056" style="stroke: #000000; stroke-width: 0.8"/>
      </g>
     </g>
     <g id="text_7">
      <!-- −1 -->
      <g transform="translate(10.817813 125.418274) scale(0.1 -0.1)">
       <use xlink:href="#DejaVuSans-2212"/>
       <use xlink:href="#DejaVuSans-31" x="83.789062"/>
      </g>
     </g>
    </g>
    <g id="ytick_3">
     <g id="line2d_8">
      <g>
       <use xlink:href="#mcdcbcab9a6" x="32.56" y="95.751858" style="stroke: #000000; stroke-width: 0.8"/>
      </g>
     </g>
     <g id="text_8">
      <!-- 0 -->
      <g transform="translate(19.1975 99.551077) scale(0.1 -0.1)">
       <use xlink:href="#DejaVuSans-30"/>
      </g>
     </g>
    </g>
    <g id="ytick_4">
     <g id="line2d_9">
      <g>
       <use xlink:href="#mcdcbcab9a6" x="32.56" y="69.884661" style="stroke: #000000; stroke-width: 0.8"/>
      </g>
     </g>
     <g id="text_9">
      <!-- 1 -->
      <g transform="translate(19.1975 73.683879) scale(0.1 -0.1)">
       <use xlink:href="#DejaVuSans-31"/>
      </g>
     </g>
    </g>
    <g id="ytick_5">
     <g id="line2d_10">
      <g>
       <use xlink:href="#mcdcbcab9a6" x="32.56" y="44.017463" style="stroke: #000000; stroke-width: 0.8"/>
      </g>
     </g>
     <g id="text_10">
      <!-- 2 -->
      <g transform="translate(19.1975 47.816682) scale(0.1 -0.1)">
       <use xlink:href="#DejaVuSans-32"/>
      </g>
     </g>
    </g>
   </g>
   <g id="line2d_11">
    <path d="M 69.861818 126.632879 
L 73.18492 126.632879 
L 74.846471 128.422084 
L 76.508022 129.018486 
L 79.831124 129.018486 
L 81.492675 133.789696 
L 83.154226 136.175304 
L 86.477327 136.175304 
L 88.138878 133.193297 
L 89.800429 131.404091 
L 93.123531 131.404091 
L 94.785082 112.319243 
L 96.446633 102.776819 
L 99.769735 102.776819 
L 101.431286 75.93875 
L 103.092837 62.221516 
L 106.415938 62.221516 
L 108.077489 51.188088 
L 109.73904 45.522272 
L 113.062142 45.522272 
L 114.723693 48.802481 
L 116.385244 50.293484 
L 119.708346 50.293484 
L 121.369897 53.573693 
L 123.031448 55.064696 
L 126.35455 55.064696 
L 128.0161 61.625114 
L 129.677651 64.607121 
L 133.000753 64.607121 
L 134.662304 85.481174 
L 136.323855 95.62 
L 139.646957 95.62 
L 141.308508 106.951629 
L 142.970059 112.319243 
L 146.293161 112.319243 
L 147.954711 115.599451 
L 149.616262 117.090455 
L 159.585568 117.090455 
L 161.247119 118.87966 
L 162.90867 119.476061 
L 166.231772 119.476061 
L 167.893323 124.247274 
L 169.554873 126.632879 
L 172.877975 126.632879 
L 174.539526 129.913088 
L 176.201077 131.404091 
L 179.524179 131.404091 
L 181.18573 120.370663 
L 182.847281 114.704849 
L 186.170383 114.704849 
L 187.831934 89.357784 
L 189.493485 76.535152 
L 192.816586 76.535152 
L 194.478137 57.450304 
L 196.139688 47.907879 
L 199.46279 47.907879 
L 201.124341 44.925872 
L 202.785892 43.136667 
L 206.108994 43.136667 
L 207.770545 47.907879 
L 209.432096 50.293484 
L 212.755197 50.293484 
L 214.416748 58.344905 
L 216.078299 62.221516 
L 219.401401 62.221516 
L 221.062952 78.324356 
L 222.724503 86.077576 
L 226.047605 86.077576 
L 227.709156 100.391212 
L 229.370707 107.548031 
L 232.693808 107.548031 
L 234.355359 114.108447 
L 236.01691 117.090455 
L 239.340012 117.090455 
L 241.001563 120.370663 
L 242.663114 121.861667 
L 245.986216 121.861667 
L 247.647767 126.632879 
L 249.309318 129.018486 
L 252.63242 129.018486 
L 254.29397 132.298693 
L 255.955521 133.789696 
L 259.278623 133.789696 
L 260.940174 138.560908 
L 262.601725 140.946516 
L 272.571031 140.946516 
L 274.232581 121.861667 
L 275.894132 112.319243 
L 279.217234 112.319243 
L 280.878785 86.972178 
L 282.540336 74.149546 
L 285.863438 74.149546 
L 287.524989 63.116118 
L 289.18654 57.450304 
L 292.509642 57.450304 
L 294.171193 64.010719 
L 295.832743 66.992729 
L 299.155845 66.992729 
L 300.817396 71.76394 
L 302.478947 74.149546 
L 305.802049 74.149546 
L 307.4636 83.69197 
L 309.125151 88.463182 
L 312.448253 88.463182 
L 314.109804 104.566023 
L 315.771355 112.319243 
L 319.094456 112.319243 
L 320.756007 121.861667 
L 322.417558 126.632879 
L 325.74066 126.632879 
L 327.402211 129.913088 
L 329.063762 131.404091 
L 332.386864 131.404091 
L 334.048415 133.193297 
L 335.709966 133.789696 
L 339.033067 133.789696 
L 340.694618 135.578902 
L 342.356169 136.175304 
L 345.679271 136.175304 
L 347.340822 142.735719 
L 349.002373 145.717728 
L 352.325475 145.717728 
L 353.987026 150.488941 
L 355.648577 152.874545 
L 358.971678 152.874545 
L 360.633229 141.841117 
L 362.29478 136.175304 
L 365.617882 136.175304 
L 367.279433 109.337235 
L 368.940984 95.62 
L 372.264086 95.62 
L 373.925637 70.272936 
L 375.587188 57.450304 
L 378.91029 57.450304 
L 380.57184 60.73051 
L 382.233391 62.221516 
L 385.556493 62.221516 
L 387.218044 64.010719 
L 388.879595 64.607121 
L 392.202697 64.607121 
L 393.864248 71.167538 
L 395.525799 74.149546 
L 398.848901 74.149546 
L 400.510452 86.972178 
L 402.172002 93.234394 
L 405.495104 93.234394 
L 407.156655 106.057027 
L 408.818206 112.319243 
L 412.141308 112.319243 
L 413.802859 115.599451 
L 415.46441 117.090455 
L 418.787512 117.090455 
L 420.449063 118.87966 
L 422.110613 119.476061 
L 432.079919 119.476061 
L 433.74147 122.756268 
L 435.403021 124.247274 
L 438.726123 124.247274 
L 440.387674 129.018486 
L 442.049225 131.404091 
L 445.372326 131.404091 
L 447.033877 128.422084 
L 448.695428 126.632879 
L 452.01853 126.632879 
L 453.680081 93.234394 
L 455.341632 76.535152 
L 458.664734 76.535152 
L 460.326285 54.468295 
L 461.987836 43.136667 
L 465.310937 43.136667 
L 466.972488 40.15466 
L 468.634039 38.365455 
L 471.957141 38.365455 
L 473.618692 41.645664 
L 475.280243 43.136667 
L 478.603345 43.136667 
L 480.264896 46.416876 
L 481.926447 47.907879 
L 485.249548 47.907879 
L 486.911099 57.450304 
L 488.57265 62.221516 
L 491.895752 62.221516 
L 493.557303 76.535152 
L 495.218854 83.69197 
L 498.541956 83.69197 
L 500.203507 95.023599 
L 501.865058 100.391212 
L 505.18816 100.391212 
L 506.84971 106.951629 
L 508.511261 109.933637 
L 511.834363 109.933637 
L 513.495914 113.213845 
L 515.157465 114.704849 
L 518.480567 114.704849 
L 520.142118 119.476061 
L 521.803669 121.861667 
L 525.126771 121.861667 
L 526.788322 129.913088 
L 528.449872 133.789696 
L 531.772974 133.789696 
L 533.434525 137.069905 
L 535.096076 138.560908 
L 538.419178 138.560908 
L 540.080729 117.985057 
L 541.74228 107.548031 
L 545.065382 107.548031 
L 546.726933 82.200966 
L 548.388483 69.378333 
L 551.711585 69.378333 
L 553.373136 58.344905 
L 555.034687 52.679092 
L 565.003993 52.679092 
L 566.665544 55.959301 
L 568.327095 57.450304 
L 571.650196 57.450304 
L 573.311747 64.010719 
L 574.973298 66.992729 
L 578.2964 66.992729 
L 579.957951 81.306364 
L 581.619502 88.463182 
L 584.942604 88.463182 
L 586.604155 101.285815 
L 588.265706 107.548031 
L 591.588807 107.548031 
L 593.250358 112.319243 
L 594.911909 114.704849 
L 598.235011 114.704849 
L 599.896562 117.985057 
L 601.558113 119.476061 
L 604.881215 119.476061 
L 606.542766 122.756268 
L 608.204317 124.247274 
L 611.527419 124.247274 
L 613.188969 129.018486 
L 614.85052 131.404091 
L 618.173622 131.404091 
L 619.835173 136.175304 
L 621.496724 138.560908 
L 624.819826 138.560908 
L 626.481377 129.018486 
L 628.142928 124.247274 
L 631.46603 124.247274 
L 633.12758 98.900209 
L 634.789131 86.077576 
L 638.112233 86.077576 
L 639.773784 62.221516 
L 641.435335 50.293484 
L 644.758437 50.293484 
L 646.419988 45.522272 
L 648.081539 43.136667 
L 651.404641 43.136667 
L 653.066192 47.907879 
L 654.727742 50.293484 
L 658.050844 50.293484 
L 659.712395 53.573693 
L 661.373946 55.064696 
L 664.697048 55.064696 
L 666.358599 63.116118 
L 668.02015 66.992729 
L 671.343252 66.992729 
L 673.004803 81.306364 
L 674.666354 88.463182 
L 677.989455 88.463182 
L 679.651006 101.285815 
L 681.312557 107.548031 
L 684.635659 107.548031 
L 686.29721 112.319243 
L 687.958761 114.704849 
L 697.928066 114.704849 
L 699.589617 117.985057 
L 701.251168 119.476061 
L 704.57427 119.476061 
L 706.235821 126.036477 
L 707.897372 129.018486 
L 717.866677 129.018486 
L 719.528228 109.933637 
L 721.189779 100.391212 
L 724.512881 100.391212 
L 726.174432 75.044148 
L 727.835983 62.221516 
L 731.159085 62.221516 
L 732.820636 49.697082 
L 734.482187 43.136667 
L 737.805289 43.136667 
L 739.466839 44.925872 
L 741.12839 45.522272 
L 744.451492 45.522272 
L 746.113043 47.311477 
L 747.774594 47.907879 
L 751.097696 47.907879 
L 752.759247 54.468295 
L 754.420798 57.450304 
L 757.7439 57.450304 
L 759.40545 71.76394 
L 761.067001 78.920758 
L 764.390103 78.920758 
L 766.051654 93.234394 
L 767.713205 100.391212 
L 771.036307 100.391212 
L 772.697858 109.933637 
L 774.359409 114.704849 
L 777.682511 114.704849 
L 779.344062 117.985057 
L 781.005612 119.476061 
L 784.328714 119.476061 
L 785.990265 121.265265 
L 787.651816 121.861667 
L 790.974918 121.861667 
L 792.636469 126.632879 
L 794.29802 129.018486 
L 797.621122 129.018486 
L 799.282673 133.789696 
L 800.944224 136.175304 
L 804.267325 136.175304 
L 805.928876 129.913088 
L 807.590427 126.632879 
L 810.913529 126.632879 
L 812.57508 101.285815 
L 814.236631 88.463182 
L 815.898182 88.463182 
L 815.898182 88.463182 
" clip-path="url(#pf0d68e522d)" style="fill: none; stroke: #808080; stroke-opacity: 0.7; stroke-width: 1.5; stroke-linecap: square"/>
   </g>
   <g id="line2d_12">
    <path d="M 69.861818 126.632879 
L 71.523369 126.632879 
L 73.18492 126.632879 
L 74.846471 128.422084 
L 76.508022 129.018486 
L 78.169573 129.018486 
L 79.831124 129.018486 
L 81.492675 133.789696 
L 83.154226 136.175304 
L 84.815776 136.175304 
L 86.477327 136.175304 
L 88.138878 133.193297 
L 89.800429 131.404091 
L 91.46198 131.404091 
L 93.123531 131.404091 
L 94.785082 112.319243 
L 96.446633 102.776819 
L 98.108184 102.776819 
L 99.769735 102.776819 
L 101.431286 75.93875 
L 103.092837 62.221516 
L 104.754388 62.221516 
L 106.415938 62.221516 
L 108.077489 51.188088 
L 109.73904 45.522272 
L 111.400591 45.522272 
L 113.062142 45.522272 
L 114.723693 48.802481 
L 116.385244 50.293484 
L 118.046795 50.293484 
L 119.708346 50.293484 
L 121.369897 53.573693 
L 123.031448 55.064696 
L 124.692999 55.064696 
L 126.35455 55.064696 
L 128.0161 61.625114 
L 129.677651 64.607121 
L 131.339202 64.607121 
L 133.000753 64.607121 
L 134.662304 85.481174 
L 136.323855 95.62 
L 137.985406 95.62 
L 139.646957 95.62 
L 141.308508 106.951629 
L 142.970059 112.319243 
L 144.63161 112.319243 
L 146.293161 112.319243 
L 147.954711 115.599451 
L 149.616262 117.090455 
L 151.277813 117.090455 
L 152.939364 117.090455 
L 154.600915 117.090455 
L 156.262466 117.090455 
L 157.924017 117.090455 
" clip-path="url(#pf0d68e522d)" style="fill: none; stroke: #0000ff; stroke-opacity: 0.2; stroke-width: 6; stroke-linecap: round"/>
   </g>
   <g id="line2d_13">
    <path d="M 69.861818 126.632879 
L 71.523369 126.632879 
L 73.18492 126.632879 
L 74.846471 128.422084 
L 76.508022 129.018486 
L 78.169573 129.018486 
L 79.831124 129.018486 
L 81.492675 133.789696 
L 83.154226 136.175304 
L 84.815776 136.175304 
L 86.477327 136.175304 
L 88.138878 133.193297 
L 89.800429 131.404091 
L 91.46198 131.404091 
L 93.123531 131.404091 
L 94.785082 112.319243 
L 96.446633 102.776819 
L 98.108184 102.776819 
L 99.769735 102.776819 
L 101.431286 75.93875 
L 103.092837 62.221516 
L 104.754388 62.221516 
L 106.415938 62.221516 
L 108.077489 51.188088 
L 109.73904 45.522272 
L 111.400591 45.522272 
L 113.062142 45.522272 
L 114.723693 48.802481 
L 116.385244 50.293484 
L 118.046795 50.293484 
L 119.708346 50.293484 
L 121.369897 53.573693 
L 123.031448 55.064696 
L 124.692999 55.064696 
L 126.35455 55.064696 
L 128.0161 61.625114 
L 129.677651 64.607121 
L 131.339202 64.607121 
L 133.000753 64.607121 
L 134.662304 85.481174 
L 136.323855 95.62 
L 137.985406 95.62 
L 139.646957 95.62 
L 141.308508 106.951629 
L 142.970059 112.319243 
L 144.63161 112.319243 
L 146.293161 112.319243 
L 147.954711 115.599451 
L 149.616262 117.090455 
L 151.277813 117.090455 
L 152.939364 117.090455 
L 154.600915 117.090455 
L 156.262466 117.090455 
L 157.924017 117.090455 
" clip-path="url(#pf0d68e522d)" style="fill: none; stroke: #0000ff; stroke-width: 2.5; stroke-linecap: square"/>
   </g>
   <g id="line2d_14">
    <path d="M 159.585568 117.090455 
L 161.247119 118.87966 
L 162.90867 119.476061 
L 164.570221 119.476061 
L 166.231772 119.476061 
L 167.893323 124.247274 
L 169.554873 126.632879 
L 171.216424 126.632879 
L 172.877975 126.632879 
L 174.539526 129.913088 
L 176.201077 131.404091 
L 177.862628 131.404091 
L 179.524179 131.404091 
L 181.18573 120.370663 
L 182.847281 114.704849 
L 184.508832 114.704849 
L 186.170383 114.704849 
L 187.831934 89.357784 
L 189.493485 76.535152 
L 191.155035 76.535152 
L 192.816586 76.535152 
L 194.478137 57.450304 
L 196.139688 47.907879 
L 197.801239 47.907879 
L 199.46279 47.907879 
L 201.124341 44.925872 
L 202.785892 43.136667 
L 204.447443 43.136667 
L 206.108994 43.136667 
L 207.770545 47.907879 
L 209.432096 50.293484 
L 211.093646 50.293484 
L 212.755197 50.293484 
L 214.416748 58.344905 
L 216.078299 62.221516 
L 217.73985 62.221516 
L 219.401401 62.221516 
L 221.062952 78.324356 
L 222.724503 86.077576 
L 224.386054 86.077576 
L 226.047605 86.077576 
L 227.709156 100.391212 
L 229.370707 107.548031 
L 231.032258 107.548031 
L 232.693808 107.548031 
L 234.355359 114.108447 
L 236.01691 117.090455 
L 237.678461 117.090455 
L 239.340012 117.090455 
L 241.001563 120.370663 
L 242.663114 121.861667 
L 244.324665 121.861667 
L 245.986216 121.861667 
L 247.647767 126.632879 
" clip-path="url(#pf0d68e522d)" style="fill: none; stroke: #ffa500; stroke-opacity: 0.2; stroke-width: 6; stroke-linecap: round"/>
   </g>
   <g id="line2d_15">
    <path d="M 159.585568 117.090455 
L 161.247119 118.87966 
L 162.90867 119.476061 
L 164.570221 119.476061 
L 166.231772 119.476061 
L 167.893323 124.247274 
L 169.554873 126.632879 
L 171.216424 126.632879 
L 172.877975 126.632879 
L 174.539526 129.913088 
L 176.201077 131.404091 
L 177.862628 131.404091 
L 179.524179 131.404091 
L 181.18573 120.370663 
L 182.847281 114.704849 
L 184.508832 114.704849 
L 186.170383 114.704849 
L 187.831934 89.357784 
L 189.493485 76.535152 
L 191.155035 76.535152 
L 192.816586 76.535152 
L 194.478137 57.450304 
L 196.139688 47.907879 
L 197.801239 47.907879 
L 199.46279 47.907879 
L 201.124341 44.925872 
L 202.785892 43.136667 
L 204.447443 43.136667 
L 206.108994 43.136667 
L 207.770545 47.907879 
L 209.432096 50.293484 
L 211.093646 50.293484 
L 212.755197 50.293484 
L 214.416748 58.344905 
L 216.078299 62.221516 
L 217.73985 62.221516 
L 219.401401 62.221516 
L 221.062952 78.324356 
L 222.724503 86.077576 
L 224.386054 86.077576 
L 226.047605 86.077576 
L 227.709156 100.391212 
L 229.370707 107.548031 
L 231.032258 107.548031 
L 232.693808 107.548031 
L 234.355359 114.108447 
L 236.01691 117.090455 
L 237.678461 117.090455 
L 239.340012 117.090455 
L 241.001563 120.370663 
L 242.663114 121.861667 
L 244.324665 121.861667 
L 245.986216 121.861667 
L 247.647767 126.632879 
" clip-path="url(#pf0d68e522d)" style="fill: none; stroke: #ffa500; stroke-width: 2.5; stroke-linecap: square"/>
   </g>
   <g id="line2d_16">
    <path d="M 249.309318 129.018486 
L 250.970869 129.018486 
L 252.63242 129.018486 
L 254.29397 132.298693 
L 255.955521 133.789696 
L 257.617072 133.789696 
L 259.278623 133.789696 
L 260.940174 138.560908 
L 262.601725 140.946516 
L 264.263276 140.946516 
L 265.924827 140.946516 
L 267.586378 140.946516 
L 269.247929 140.946516 
L 270.90948 140.946516 
L 272.571031 140.946516 
L 274.232581 121.861667 
L 275.894132 112.319243 
L 277.555683 112.319243 
L 279.217234 112.319243 
L 280.878785 86.972178 
L 282.540336 74.149546 
L 284.201887 74.149546 
L 285.863438 74.149546 
L 287.524989 63.116118 
L 289.18654 57.450304 
L 290.848091 57.450304 
L 292.509642 57.450304 
L 294.171193 64.010719 
L 295.832743 66.992729 
L 297.494294 66.992729 
L 299.155845 66.992729 
L 300.817396 71.76394 
L 302.478947 74.149546 
L 304.140498 74.149546 
L 305.802049 74.149546 
L 307.4636 83.69197 
L 309.125151 88.463182 
L 310.786702 88.463182 
L 312.448253 88.463182 
L 314.109804 104.566023 
L 315.771355 112.319243 
L 317.432905 112.319243 
L 319.094456 112.319243 
L 320.756007 121.861667 
L 322.417558 126.632879 
L 324.079109 126.632879 
L 325.74066 126.632879 
L 327.402211 129.913088 
L 329.063762 131.404091 
L 330.725313 131.404091 
L 332.386864 131.404091 
L 334.048415 133.193297 
L 335.709966 133.789696 
L 337.371517 133.789696 
" clip-path="url(#pf0d68e522d)" style="fill: none; stroke: #800080; stroke-opacity: 0.2; stroke-width: 6; stroke-linecap: round"/>
   </g>
   <g id="line2d_17">
    <path d="M 249.309318 129.018486 
L 250.970869 129.018486 
L 252.63242 129.018486 
L 254.29397 132.298693 
L 255.955521 133.789696 
L 257.617072 133.789696 
L 259.278623 133.789696 
L 260.940174 138.560908 
L 262.601725 140.946516 
L 264.263276 140.946516 
L 265.924827 140.946516 
L 267.586378 140.946516 
L 269.247929 140.946516 
L 270.90948 140.946516 
L 272.571031 140.946516 
L 274.232581 121.861667 
L 275.894132 112.319243 
L 277.555683 112.319243 
L 279.217234 112.319243 
L 280.878785 86.972178 
L 282.540336 74.149546 
L 284.201887 74.149546 
L 285.863438 74.149546 
L 287.524989 63.116118 
L 289.18654 57.450304 
L 290.848091 57.450304 
L 292.509642 57.450304 
L 294.171193 64.010719 
L 295.832743 66.992729 
L 297.494294 66.992729 
L 299.155845 66.992729 
L 300.817396 71.76394 
L 302.478947 74.149546 
L 304.140498 74.149546 
L 305.802049 74.149546 
L 307.4636 83.69197 
L 309.125151 88.463182 
L 310.786702 88.463182 
L 312.448253 88.463182 
L 314.109804 104.566023 
L 315.771355 112.319243 
L 317.432905 112.319243 
L 319.094456 112.319243 
L 320.756007 121.861667 
L 322.417558 126.632879 
L 324.079109 126.632879 
L 325.74066 126.632879 
L 327.402211 129.913088 
L 329.063762 131.404091 
L 330.725313 131.404091 
L 332.386864 131.404091 
L 334.048415 133.193297 
L 335.709966 133.789696 
L 337.371517 133.789696 
" clip-path="url(#pf0d68e522d)" style="fill: none; stroke: #800080; stroke-width: 2.5; stroke-linecap: square"/>
   </g>
   <g id="patch_3">
    <path d="M 32.56 158.6 
L 32.56 32.64 
" style="fill: none; stroke: #000000; stroke-width: 0.8; stroke-linejoin: miter; stroke-linecap: square"/>
   </g>
   <g id="patch_4">
    <path d="M 853.2 158.6 
L 853.2 32.64 
" style="fill: none; stroke: #000000; stroke-width: 0.8; stroke-linejoin: miter; stroke-linecap: square"/>
   </g>
   <g id="patch_5">
    <path d="M 32.56 158.6 
L 853.2 158.6 
" style="fill: none; stroke: #000000; stroke-width: 0.8; stroke-linejoin: miter; stroke-linecap: square"/>
   </g>
   <g id="patch_6">
    <path d="M 32.56 32.64 
L 853.2 32.64 
" style="fill: none; stroke: #000000; stroke-width: 0.8; stroke-linejoin: miter; stroke-linecap: square"/>
   </g>
   <g id="text_11">
    <!-- Pulsus Paradoxus subsequences -->
    <g transform="translate(281.934688 26.64) scale(0.2 -0.2)">
     <defs>
      <path id="DejaVuSans-50" d="M 1259 4147 
L 1259 2394 
L 2053 2394 
Q 2494 2394 2734 2622 
Q 2975 2850 2975 3272 
Q 2975 3691 2734 3919 
Q 2494 4147 2053 4147 
L 1259 4147 
z
M 628 4666 
L 2053 4666 
Q 2838 4666 3239 4311 
Q 3641 3956 3641 3272 
Q 3641 2581 3239 2228 
Q 2838 1875 2053 1875 
L 1259 1875 
L 1259 0 
L 628 0 
L 628 4666 
z
" transform="scale(0.015625)"/>
      <path id="DejaVuSans-75" d="M 544 1381 
L 544 3500 
L 1119 3500 
L 1119 1403 
Q 1119 906 1312 657 
Q 1506 409 1894 409 
Q 2359 409 2629 706 
Q 2900 1003 2900 1516 
L 2900 3500 
L 3475 3500 
L 3475 0 
L 2900 0 
L 2900 538 
Q 2691 219 2414 64 
Q 2138 -91 1772 -91 
Q 1169 -91 856 284 
Q 544 659 544 1381 
z
M 1991 3584 
L 1991 3584 
z
" transform="scale(0.015625)"/>
      <path id="DejaVuSans-6c" d="M 603 4863 
L 1178 4863 
L 1178 0 
L 603 0 
L 603 4863 
z
" transform="scale(0.015625)"/>
      <path id="DejaVuSans-73" d="M 2834 3397 
L 2834 2853 
Q 2591 2978 2328 3040 
Q 2066 3103 1784 3103 
Q 1356 3103 1142 2972 
Q 928 2841 928 2578 
Q 928 2378 1081 2264 
Q 1234 2150 1697 2047 
L 1894 2003 
Q 2506 1872 2764 1633 
Q 3022 1394 3022 966 
Q 3022 478 2636 193 
Q 2250 -91 1575 -91 
Q 1294 -91 989 -36 
Q 684 19 347 128 
L 347 722 
Q 666 556 975 473 
Q 1284 391 1588 391 
Q 1994 391 2212 530 
Q 2431 669 2431 922 
Q 2431 1156 2273 1281 
Q 2116 1406 1581 1522 
L 1381 1569 
Q 847 1681 609 1914 
Q 372 2147 372 2553 
Q 372 3047 722 3315 
Q 1072 3584 1716 3584 
Q 2034 3584 2315 3537 
Q 2597 3491 2834 3397 
z
" transform="scale(0.015625)"/>
      <path id="DejaVuSans-20" transform="scale(0.015625)"/>
      <path id="DejaVuSans-61" d="M 2194 1759 
Q 1497 1759 1228 1600 
Q 959 1441 959 1056 
Q 959 750 1161 570 
Q 1363 391 1709 391 
Q 2188 391 2477 730 
Q 2766 1069 2766 1631 
L 2766 1759 
L 2194 1759 
z
M 3341 1997 
L 3341 0 
L 2766 0 
L 2766 531 
Q 2569 213 2275 61 
Q 1981 -91 1556 -91 
Q 1019 -91 701 211 
Q 384 513 384 1019 
Q 384 1609 779 1909 
Q 1175 2209 1959 2209 
L 2766 2209 
L 2766 2266 
Q 2766 2663 2505 2880 
Q 2244 3097 1772 3097 
Q 1472 3097 1187 3025 
Q 903 2953 641 2809 
L 641 3341 
Q 956 3463 1253 3523 
Q 1550 3584 1831 3584 
Q 2591 3584 2966 3190 
Q 3341 2797 3341 1997 
z
" transform="scale(0.015625)"/>
      <path id="DejaVuSans-72" d="M 2631 2963 
Q 2534 3019 2420 3045 
Q 2306 3072 2169 3072 
Q 1681 3072 1420 2755 
Q 1159 2438 1159 1844 
L 1159 0 
L 581 0 
L 581 3500 
L 1159 3500 
L 1159 2956 
Q 1341 3275 1631 3429 
Q 1922 3584 2338 3584 
Q 2397 3584 2469 3576 
Q 2541 3569 2628 3553 
L 2631 2963 
z
" transform="scale(0.015625)"/>
      <path id="DejaVuSans-64" d="M 2906 2969 
L 2906 4863 
L 3481 4863 
L 3481 0 
L 2906 0 
L 2906 525 
Q 2725 213 2448 61 
Q 2172 -91 1784 -91 
Q 1150 -91 751 415 
Q 353 922 353 1747 
Q 353 2572 751 3078 
Q 1150 3584 1784 3584 
Q 2172 3584 2448 3432 
Q 2725 3281 2906 2969 
z
M 947 1747 
Q 947 1113 1208 752 
Q 1469 391 1925 391 
Q 2381 391 2643 752 
Q 2906 1113 2906 1747 
Q 2906 2381 2643 2742 
Q 2381 3103 1925 3103 
Q 1469 3103 1208 2742 
Q 947 2381 947 1747 
z
" transform="scale(0.015625)"/>
      <path id="DejaVuSans-6f" d="M 1959 3097 
Q 1497 3097 1228 2736 
Q 959 2375 959 1747 
Q 959 1119 1226 758 
Q 1494 397 1959 397 
Q 2419 397 2687 759 
Q 2956 1122 2956 1747 
Q 2956 2369 2687 2733 
Q 2419 3097 1959 3097 
z
M 1959 3584 
Q 2709 3584 3137 3096 
Q 3566 2609 3566 1747 
Q 3566 888 3137 398 
Q 2709 -91 1959 -91 
Q 1206 -91 779 398 
Q 353 888 353 1747 
Q 353 2609 779 3096 
Q 1206 3584 1959 3584 
z
" transform="scale(0.015625)"/>
      <path id="DejaVuSans-78" d="M 3513 3500 
L 2247 1797 
L 3578 0 
L 2900 0 
L 1881 1375 
L 863 0 
L 184 0 
L 1544 1831 
L 300 3500 
L 978 3500 
L 1906 2253 
L 2834 3500 
L 3513 3500 
z
" transform="scale(0.015625)"/>
      <path id="DejaVuSans-62" d="M 3116 1747 
Q 3116 2381 2855 2742 
Q 2594 3103 2138 3103 
Q 1681 3103 1420 2742 
Q 1159 2381 1159 1747 
Q 1159 1113 1420 752 
Q 1681 391 2138 391 
Q 2594 391 2855 752 
Q 3116 1113 3116 1747 
z
M 1159 2969 
Q 1341 3281 1617 3432 
Q 1894 3584 2278 3584 
Q 2916 3584 3314 3078 
Q 3713 2572 3713 1747 
Q 3713 922 3314 415 
Q 2916 -91 2278 -91 
Q 1894 -91 1617 61 
Q 1341 213 1159 525 
L 1159 0 
L 581 0 
L 581 4863 
L 1159 4863 
L 1159 2969 
z
" transform="scale(0.015625)"/>
      <path id="DejaVuSans-65" d="M 3597 1894 
L 3597 1613 
L 953 1613 
Q 991 1019 1311 708 
Q 1631 397 2203 397 
Q 2534 397 2845 478 
Q 3156 559 3463 722 
L 3463 178 
Q 3153 47 2828 -22 
Q 2503 -91 2169 -91 
Q 1331 -91 842 396 
Q 353 884 353 1716 
Q 353 2575 817 3079 
Q 1281 3584 2069 3584 
Q 2775 3584 3186 3129 
Q 3597 2675 3597 1894 
z
M 3022 2063 
Q 3016 2534 2758 2815 
Q 2500 3097 2075 3097 
Q 1594 3097 1305 2825 
Q 1016 2553 972 2059 
L 3022 2063 
z
" transform="scale(0.015625)"/>
      <path id="DejaVuSans-71" d="M 947 1747 
Q 947 1113 1208 752 
Q 1469 391 1925 391 
Q 2381 391 2643 752 
Q 2906 1113 2906 1747 
Q 2906 2381 2643 2742 
Q 2381 3103 1925 3103 
Q 1469 3103 1208 2742 
Q 947 2381 947 1747 
z
M 2906 525 
Q 2725 213 2448 61 
Q 2172 -91 1784 -91 
Q 1150 -91 751 415 
Q 353 922 353 1747 
Q 353 2572 751 3078 
Q 1150 3584 1784 3584 
Q 2172 3584 2448 3432 
Q 2725 3281 2906 2969 
L 2906 3500 
L 3481 3500 
L 3481 -1331 
L 2906 -1331 
L 2906 525 
z
" transform="scale(0.015625)"/>
      <path id="DejaVuSans-6e" d="M 3513 2113 
L 3513 0 
L 2938 0 
L 2938 2094 
Q 2938 2591 2744 2837 
Q 2550 3084 2163 3084 
Q 1697 3084 1428 2787 
Q 1159 2491 1159 1978 
L 1159 0 
L 581 0 
L 581 3500 
L 1159 3500 
L 1159 2956 
Q 1366 3272 1645 3428 
Q 1925 3584 2291 3584 
Q 2894 3584 3203 3211 
Q 3513 2838 3513 2113 
z
" transform="scale(0.015625)"/>
      <path id="DejaVuSans-63" d="M 3122 3366 
L 3122 2828 
Q 2878 2963 2633 3030 
Q 2388 3097 2138 3097 
Q 1578 3097 1268 2742 
Q 959 2388 959 1747 
Q 959 1106 1268 751 
Q 1578 397 2138 397 
Q 2388 397 2633 464 
Q 2878 531 3122 666 
L 3122 134 
Q 2881 22 2623 -34 
Q 2366 -91 2075 -91 
Q 1284 -91 818 406 
Q 353 903 353 1747 
Q 353 2603 823 3093 
Q 1294 3584 2113 3584 
Q 2378 3584 2631 3529 
Q 2884 3475 3122 3366 
z
" transform="scale(0.015625)"/>
     </defs>
     <use xlink:href="#DejaVuSans-50"/>
     <use xlink:href="#DejaVuSans-75" x="58.552734"/>
     <use xlink:href="#DejaVuSans-6c" x="121.931641"/>
     <use xlink:href="#DejaVuSans-73" x="149.714844"/>
     <use xlink:href="#DejaVuSans-75" x="201.814453"/>
     <use xlink:href="#DejaVuSans-73" x="265.193359"/>
     <use xlink:href="#DejaVuSans-20" x="317.292969"/>
     <use xlink:href="#DejaVuSans-50" x="349.080078"/>
     <use xlink:href="#DejaVuSans-61" x="404.882812"/>
     <use xlink:href="#DejaVuSans-72" x="466.162109"/>
     <use xlink:href="#DejaVuSans-61" x="507.275391"/>
     <use xlink:href="#DejaVuSans-64" x="568.554688"/>
     <use xlink:href="#DejaVuSans-6f" x="632.03125"/>
     <use xlink:href="#DejaVuSans-78" x="690.087891"/>
     <use xlink:href="#DejaVuSans-75" x="749.267578"/>
     <use xlink:href="#DejaVuSans-73" x="812.646484"/>
     <use xlink:href="#DejaVuSans-20" x="864.746094"/>
     <use xlink:href="#DejaVuSans-73" x="896.533203"/>
     <use xlink:href="#DejaVuSans-75" x="948.632812"/>
     <use xlink:href="#DejaVuSans-62" x="1012.011719"/>
     <use xlink:href="#DejaVuSans-73" x="1075.488281"/>
     <use xlink:href="#DejaVuSans-65" x="1127.587891"/>
     <use xlink:href="#DejaVuSans-71" x="1189.111328"/>
     <use xlink:href="#DejaVuSans-75" x="1252.587891"/>
     <use xlink:href="#DejaVuSans-65" x="1315.966797"/>
     <use xlink:href="#DejaVuSans-6e" x="1377.490234"/>
     <use xlink:href="#DejaVuSans-63" x="1440.869141"/>
     <use xlink:href="#DejaVuSans-65" x="1495.849609"/>
     <use xlink:href="#DejaVuSans-73" x="1557.373047"/>
    </g>
   </g>
   <g id="legend_1">
    <g id="patch_7">
     <path d="M 545.26875 112.14 
L 842.7 112.14 
Q 845.7 112.14 845.7 109.14 
L 845.7 43.14 
Q 845.7 40.14 842.7 40.14 
L 545.26875 40.14 
Q 542.26875 40.14 542.26875 43.14 
L 542.26875 109.14 
Q 542.26875 112.14 545.26875 112.14 
z
" style="fill: #ffffff; opacity: 0.8; stroke: #cccccc; stroke-linejoin: miter"/>
    </g>
    <g id="line2d_18">
     <path d="M 548.26875 52.353281 
L 563.26875 52.353281 
L 578.26875 52.353281 
" style="fill: none; stroke: #0000ff; stroke-width: 2.5; stroke-linecap: square"/>
    </g>
    <g id="text_12">
     <!-- Subsequence 0_54 | [0:54] -->
     <g transform="translate(590.26875 57.603281) scale(0.15 -0.15)">
      <defs>
       <path id="DejaVuSans-53" d="M 3425 4513 
L 3425 3897 
Q 3066 4069 2747 4153 
Q 2428 4238 2131 4238 
Q 1616 4238 1336 4038 
Q 1056 3838 1056 3469 
Q 1056 3159 1242 3001 
Q 1428 2844 1947 2747 
L 2328 2669 
Q 3034 2534 3370 2195 
Q 3706 1856 3706 1288 
Q 3706 609 3251 259 
Q 2797 -91 1919 -91 
Q 1588 -91 1214 -16 
Q 841 59 441 206 
L 441 856 
Q 825 641 1194 531 
Q 1563 422 1919 422 
Q 2459 422 2753 634 
Q 3047 847 3047 1241 
Q 3047 1584 2836 1778 
Q 2625 1972 2144 2069 
L 1759 2144 
Q 1053 2284 737 2584 
Q 422 2884 422 3419 
Q 422 4038 858 4394 
Q 1294 4750 2059 4750 
Q 2388 4750 2728 4690 
Q 3069 4631 3425 4513 
z
" transform="scale(0.015625)"/>
       <path id="DejaVuSans-5f" d="M 3263 -1063 
L 3263 -1509 
L -63 -1509 
L -63 -1063 
L 3263 -1063 
z
" transform="scale(0.015625)"/>
       <path id="DejaVuSans-35" d="M 691 4666 
L 3169 4666 
L 3169 4134 
L 1269 4134 
L 1269 2991 
Q 1406 3038 1543 3061 
Q 1681 3084 1819 3084 
Q 2600 3084 3056 2656 
Q 3513 2228 3513 1497 
Q 3513 744 3044 326 
Q 2575 -91 1722 -91 
Q 1428 -91 1123 -41 
Q 819 9 494 109 
L 494 744 
Q 775 591 1075 516 
Q 1375 441 1709 441 
Q 2250 441 2565 725 
Q 2881 1009 2881 1497 
Q 2881 1984 2565 2268 
Q 2250 2553 1709 2553 
Q 1456 2553 1204 2497 
Q 953 2441 691 2322 
L 691 4666 
z
" transform="scale(0.015625)"/>
       <path id="DejaVuSans-7c" d="M 1344 4891 
L 1344 -1509 
L 813 -1509 
L 813 4891 
L 1344 4891 
z
" transform="scale(0.015625)"/>
       <path id="DejaVuSans-5b" d="M 550 4863 
L 1875 4863 
L 1875 4416 
L 1125 4416 
L 1125 -397 
L 1875 -397 
L 1875 -844 
L 550 -844 
L 550 4863 
z
" transform="scale(0.015625)"/>
       <path id="DejaVuSans-3a" d="M 750 794 
L 1409 794 
L 1409 0 
L 750 0 
L 750 794 
z
M 750 3309 
L 1409 3309 
L 1409 2516 
L 750 2516 
L 750 3309 
z
" transform="scale(0.015625)"/>
       <path id="DejaVuSans-5d" d="M 1947 4863 
L 1947 -844 
L 622 -844 
L 622 -397 
L 1369 -397 
L 1369 4416 
L 622 4416 
L 622 4863 
L 1947 4863 
z
" transform="scale(0.015625)"/>
      </defs>
      <use xlink:href="#DejaVuSans-53"/>
      <use xlink:href="#DejaVuSans-75" x="63.476562"/>
      <use xlink:href="#DejaVuSans-62" x="126.855469"/>
      <use xlink:href="#DejaVuSans-73" x="190.332031"/>
      <use xlink:href="#DejaVuSans-65" x="242.431641"/>
      <use xlink:href="#DejaVuSans-71" x="303.955078"/>
      <use xlink:href="#DejaVuSans-75" x="367.431641"/>
      <use xlink:href="#DejaVuSans-65" x="430.810547"/>
      <use xlink:href="#DejaVuSans-6e" x="492.333984"/>
      <use xlink:href="#DejaVuSans-63" x="555.712891"/>
      <use xlink:href="#DejaVuSans-65" x="610.693359"/>
      <use xlink:href="#DejaVuSans-20" x="672.216797"/>
      <use xlink:href="#DejaVuSans-30" x="704.003906"/>
      <use xlink:href="#DejaVuSans-5f" x="767.626953"/>
      <use xlink:href="#DejaVuSans-35" x="817.626953"/>
      <use xlink:href="#DejaVuSans-34" x="881.25"/>
      <use xlink:href="#DejaVuSans-20" x="944.873047"/>
      <use xlink:href="#DejaVuSans-7c" x="976.660156"/>
      <use xlink:href="#DejaVuSans-20" x="1010.351562"/>
      <use xlink:href="#DejaVuSans-5b" x="1042.138672"/>
      <use xlink:href="#DejaVuSans-30" x="1081.152344"/>
      <use xlink:href="#DejaVuSans-3a" x="1144.775391"/>
      <use xlink:href="#DejaVuSans-35" x="1178.466797"/>
      <use xlink:href="#DejaVuSans-34" x="1242.089844"/>
      <use xlink:href="#DejaVuSans-5d" x="1305.712891"/>
     </g>
    </g>
    <g id="line2d_19">
     <path d="M 548.26875 74.853281 
L 563.26875 74.853281 
L 578.26875 74.853281 
" style="fill: none; stroke: #ffa500; stroke-width: 2.5; stroke-linecap: square"/>
    </g>
    <g id="text_13">
     <!-- Subsequence 54_54 | [54:108] -->
     <g transform="translate(590.26875 80.103281) scale(0.15 -0.15)">
      <defs>
       <path id="DejaVuSans-38" d="M 2034 2216 
Q 1584 2216 1326 1975 
Q 1069 1734 1069 1313 
Q 1069 891 1326 650 
Q 1584 409 2034 409 
Q 2484 409 2743 651 
Q 3003 894 3003 1313 
Q 3003 1734 2745 1975 
Q 2488 2216 2034 2216 
z
M 1403 2484 
Q 997 2584 770 2862 
Q 544 3141 544 3541 
Q 544 4100 942 4425 
Q 1341 4750 2034 4750 
Q 2731 4750 3128 4425 
Q 3525 4100 3525 3541 
Q 3525 3141 3298 2862 
Q 3072 2584 2669 2484 
Q 3125 2378 3379 2068 
Q 3634 1759 3634 1313 
Q 3634 634 3220 271 
Q 2806 -91 2034 -91 
Q 1263 -91 848 271 
Q 434 634 434 1313 
Q 434 1759 690 2068 
Q 947 2378 1403 2484 
z
M 1172 3481 
Q 1172 3119 1398 2916 
Q 1625 2713 2034 2713 
Q 2441 2713 2670 2916 
Q 2900 3119 2900 3481 
Q 2900 3844 2670 4047 
Q 2441 4250 2034 4250 
Q 1625 4250 1398 4047 
Q 1172 3844 1172 3481 
z
" transform="scale(0.015625)"/>
      </defs>
      <use xlink:href="#DejaVuSans-53"/>
      <use xlink:href="#DejaVuSans-75" x="63.476562"/>
      <use xlink:href="#DejaVuSans-62" x="126.855469"/>
      <use xlink:href="#DejaVuSans-73" x="190.332031"/>
      <use xlink:href="#DejaVuSans-65" x="242.431641"/>
      <use xlink:href="#DejaVuSans-71" x="303.955078"/>
      <use xlink:href="#DejaVuSans-75" x="367.431641"/>
      <use xlink:href="#DejaVuSans-65" x="430.810547"/>
      <use xlink:href="#DejaVuSans-6e" x="492.333984"/>
      <use xlink:href="#DejaVuSans-63" x="555.712891"/>
      <use xlink:href="#DejaVuSans-65" x="610.693359"/>
      <use xlink:href="#DejaVuSans-20" x="672.216797"/>
      <use xlink:href="#DejaVuSans-35" x="704.003906"/>
      <use xlink:href="#DejaVuSans-34" x="767.626953"/>
      <use xlink:href="#DejaVuSans-5f" x="831.25"/>
      <use xlink:href="#DejaVuSans-35" x="881.25"/>
      <use xlink:href="#DejaVuSans-34" x="944.873047"/>
      <use xlink:href="#DejaVuSans-20" x="1008.496094"/>
      <use xlink:href="#DejaVuSans-7c" x="1040.283203"/>
      <use xlink:href="#DejaVuSans-20" x="1073.974609"/>
      <use xlink:href="#DejaVuSans-5b" x="1105.761719"/>
      <use xlink:href="#DejaVuSans-35" x="1144.775391"/>
      <use xlink:href="#DejaVuSans-34" x="1208.398438"/>
      <use xlink:href="#DejaVuSans-3a" x="1272.021484"/>
      <use xlink:href="#DejaVuSans-31" x="1305.712891"/>
      <use xlink:href="#DejaVuSans-30" x="1369.335938"/>
      <use xlink:href="#DejaVuSans-38" x="1432.958984"/>
      <use xlink:href="#DejaVuSans-5d" x="1496.582031"/>
     </g>
    </g>
    <g id="line2d_20">
     <path d="M 548.26875 97.353281 
L 563.26875 97.353281 
L 578.26875 97.353281 
" style="fill: none; stroke: #800080; stroke-width: 2.5; stroke-linecap: square"/>
    </g>
    <g id="text_14">
     <!-- Subsequence 108_54 | [108:162] -->
     <g transform="translate(590.26875 102.603281) scale(0.15 -0.15)">
      <defs>
       <path id="DejaVuSans-36" d="M 2113 2584 
Q 1688 2584 1439 2293 
Q 1191 2003 1191 1497 
Q 1191 994 1439 701 
Q 1688 409 2113 409 
Q 2538 409 2786 701 
Q 3034 994 3034 1497 
Q 3034 2003 2786 2293 
Q 2538 2584 2113 2584 
z
M 3366 4563 
L 3366 3988 
Q 3128 4100 2886 4159 
Q 2644 4219 2406 4219 
Q 1781 4219 1451 3797 
Q 1122 3375 1075 2522 
Q 1259 2794 1537 2939 
Q 1816 3084 2150 3084 
Q 2853 3084 3261 2657 
Q 3669 2231 3669 1497 
Q 3669 778 3244 343 
Q 2819 -91 2113 -91 
Q 1303 -91 875 529 
Q 447 1150 447 2328 
Q 447 3434 972 4092 
Q 1497 4750 2381 4750 
Q 2619 4750 2861 4703 
Q 3103 4656 3366 4563 
z
" transform="scale(0.015625)"/>
      </defs>
      <use xlink:href="#DejaVuSans-53"/>
      <use xlink:href="#DejaVuSans-75" x="63.476562"/>
      <use xlink:href="#DejaVuSans-62" x="126.855469"/>
      <use xlink:href="#DejaVuSans-73" x="190.332031"/>
      <use xlink:href="#DejaVuSans-65" x="242.431641"/>
      <use xlink:href="#DejaVuSans-71" x="303.955078"/>
      <use xlink:href="#DejaVuSans-75" x="367.431641"/>
      <use xlink:href="#DejaVuSans-65" x="430.810547"/>
      <use xlink:href="#DejaVuSans-6e" x="492.333984"/>
      <use xlink:href="#DejaVuSans-63" x="555.712891"/>
      <use xlink:href="#DejaVuSans-65" x="610.693359"/>
      <use xlink:href="#DejaVuSans-20" x="672.216797"/>
      <use xlink:href="#DejaVuSans-31" x="704.003906"/>
      <use xlink:href="#DejaVuSans-30" x="767.626953"/>
      <use xlink:href="#DejaVuSans-38" x="831.25"/>
      <use xlink:href="#DejaVuSans-5f" x="894.873047"/>
      <use xlink:href="#DejaVuSans-35" x="944.873047"/>
      <use xlink:href="#DejaVuSans-34" x="1008.496094"/>
      <use xlink:href="#DejaVuSans-20" x="1072.119141"/>
      <use xlink:href="#DejaVuSans-7c" x="1103.90625"/>
      <use xlink:href="#DejaVuSans-20" x="1137.597656"/>
      <use xlink:href="#DejaVuSans-5b" x="1169.384766"/>
      <use xlink:href="#DejaVuSans-31" x="1208.398438"/>
      <use xlink:href="#DejaVuSans-30" x="1272.021484"/>
      <use xlink:href="#DejaVuSans-38" x="1335.644531"/>
      <use xlink:href="#DejaVuSans-3a" x="1399.267578"/>
      <use xlink:href="#DejaVuSans-31" x="1432.958984"/>
      <use xlink:href="#DejaVuSans-36" x="1496.582031"/>
      <use xlink:href="#DejaVuSans-32" x="1560.205078"/>
      <use xlink:href="#DejaVuSans-5d" x="1623.828125"/>
     </g>
    </g>
   </g>
  </g>
 </g>
 <defs>
  <clipPath id="pf0d68e522d">
   <rect x="32.56" y="32.64" width="820.64" height="125.96"/>
  </clipPath>
 </defs>
</svg>
