<?xml version="1.0" encoding="utf-8" standalone="no"?>
<!DOCTYPE svg PUBLIC "-//W3C//DTD SVG 1.1//EN"
  "http://www.w3.org/Graphics/SVG/1.1/DTD/svg11.dtd">
<svg xmlns:xlink="http://www.w3.org/1999/xlink" width="864pt" height="186.48pt" viewBox="0 0 864 186.48" xmlns="http://www.w3.org/2000/svg" version="1.1">
 <metadata>
  <rdf:RDF xmlns:dc="http://purl.org/dc/elements/1.1/" xmlns:cc="http://creativecommons.org/ns#" xmlns:rdf="http://www.w3.org/1999/02/22-rdf-syntax-ns#">
   <cc:Work>
    <dc:type rdf:resource="http://purl.org/dc/dcmitype/StillImage"/>
    <dc:date>2024-11-21T16:13:21.840553</dc:date>
    <dc:format>image/svg+xml</dc:format>
    <dc:creator>
     <cc:Agent>
      <dc:title>Matplotlib v3.8.1, https://matplotlib.org/</dc:title>
     </cc:Agent>
    </dc:creator>
   </cc:Work>
  </rdf:RDF>
 </metadata>
 <defs>
  <style type="text/css">*{stroke-linejoin: round; stroke-linecap: butt}</style>
 </defs>
 <g id="figure_1">
  <g id="patch_1">
   <path d="M 0 186.48 
L 864 186.48 
L 864 0 
L 0 0 
z
" style="fill: #ffffff"/>
  </g>
  <g id="axes_1">
   <g id="patch_2">
    <path d="M 86.4 167.832 
L 777.6 167.832 
L 777.6 18.648 
L 86.4 18.648 
z
" style="fill: #ffffff"/>
   </g>
   <g id="matplotlib.axis_1">
    <g id="xtick_1">
     <g id="line2d_1">
      <defs>
       <path id="mefd2ce5d54" d="M 0 0 
L 0 3.5 
" style="stroke: #000000; stroke-width: 0.8"/>
      </defs>
      <g>
       <use xlink:href="#mefd2ce5d54" x="117.818182" y="167.832" style="stroke: #000000; stroke-width: 0.8"/>
      </g>
     </g>
     <g id="text_1">
      <!-- 0 -->
      <g transform="translate(114.636932 182.430437) scale(0.1 -0.1)">
       <defs>
        <path id="DejaVuSans-30" d="M 2034 4250 
Q 1547 4250 1301 3770 
Q 1056 3291 1056 2328 
Q 1056 1369 1301 889 
Q 1547 409 2034 409 
Q 2525 409 2770 889 
Q 3016 1369 3016 2328 
Q 3016 3291 2770 3770 
Q 2525 4250 2034 4250 
z
M 2034 4750 
Q 2819 4750 3233 4129 
Q 3647 3509 3647 2328 
Q 3647 1150 3233 529 
Q 2819 -91 2034 -91 
Q 1250 -91 836 529 
Q 422 1150 422 2328 
Q 422 3509 836 4129 
Q 1250 4750 2034 4750 
z
" transform="scale(0.015625)"/>
       </defs>
       <use xlink:href="#DejaVuSans-30"/>
      </g>
     </g>
    </g>
    <g id="xtick_2">
     <g id="line2d_2">
      <g>
       <use xlink:href="#mefd2ce5d54" x="222.895713" y="167.832" style="stroke: #000000; stroke-width: 0.8"/>
      </g>
     </g>
     <g id="text_2">
      <!-- 50 -->
      <g transform="translate(216.533213 182.430437) scale(0.1 -0.1)">
       <defs>
        <path id="DejaVuSans-35" d="M 691 4666 
L 3169 4666 
L 3169 4134 
L 1269 4134 
L 1269 2991 
Q 1406 3038 1543 3061 
Q 1681 3084 1819 3084 
Q 2600 3084 3056 2656 
Q 3513 2228 3513 1497 
Q 3513 744 3044 326 
Q 2575 -91 1722 -91 
Q 1428 -91 1123 -41 
Q 819 9 494 109 
L 494 744 
Q 775 591 1075 516 
Q 1375 441 1709 441 
Q 2250 441 2565 725 
Q 2881 1009 2881 1497 
Q 2881 1984 2565 2268 
Q 2250 2553 1709 2553 
Q 1456 2553 1204 2497 
Q 953 2441 691 2322 
L 691 4666 
z
" transform="scale(0.015625)"/>
       </defs>
       <use xlink:href="#DejaVuSans-35"/>
       <use xlink:href="#DejaVuSans-30" x="63.623047"/>
      </g>
     </g>
    </g>
    <g id="xtick_3">
     <g id="line2d_3">
      <g>
       <use xlink:href="#mefd2ce5d54" x="327.973244" y="167.832" style="stroke: #000000; stroke-width: 0.8"/>
      </g>
     </g>
     <g id="text_3">
      <!-- 100 -->
      <g transform="translate(318.429494 182.430437) scale(0.1 -0.1)">
       <defs>
        <path id="DejaVuSans-31" d="M 794 531 
L 1825 531 
L 1825 4091 
L 703 3866 
L 703 4441 
L 1819 4666 
L 2450 4666 
L 2450 531 
L 3481 531 
L 3481 0 
L 794 0 
L 794 531 
z
" transform="scale(0.015625)"/>
       </defs>
       <use xlink:href="#DejaVuSans-31"/>
       <use xlink:href="#DejaVuSans-30" x="63.623047"/>
       <use xlink:href="#DejaVuSans-30" x="127.246094"/>
      </g>
     </g>
    </g>
    <g id="xtick_4">
     <g id="line2d_4">
      <g>
       <use xlink:href="#mefd2ce5d54" x="433.050775" y="167.832" style="stroke: #000000; stroke-width: 0.8"/>
      </g>
     </g>
     <g id="text_4">
      <!-- 150 -->
      <g transform="translate(423.507025 182.430437) scale(0.1 -0.1)">
       <use xlink:href="#DejaVuSans-31"/>
       <use xlink:href="#DejaVuSans-35" x="63.623047"/>
       <use xlink:href="#DejaVuSans-30" x="127.246094"/>
      </g>
     </g>
    </g>
    <g id="xtick_5">
     <g id="line2d_5">
      <g>
       <use xlink:href="#mefd2ce5d54" x="538.128306" y="167.832" style="stroke: #000000; stroke-width: 0.8"/>
      </g>
     </g>
     <g id="text_5">
      <!-- 200 -->
      <g transform="translate(528.584556 182.430437) scale(0.1 -0.1)">
       <defs>
        <path id="DejaVuSans-32" d="M 1228 531 
L 3431 531 
L 3431 0 
L 469 0 
L 469 531 
Q 828 903 1448 1529 
Q 2069 2156 2228 2338 
Q 2531 2678 2651 2914 
Q 2772 3150 2772 3378 
Q 2772 3750 2511 3984 
Q 2250 4219 1831 4219 
Q 1534 4219 1204 4116 
Q 875 4013 500 3803 
L 500 4441 
Q 881 4594 1212 4672 
Q 1544 4750 1819 4750 
Q 2544 4750 2975 4387 
Q 3406 4025 3406 3419 
Q 3406 3131 3298 2873 
Q 3191 2616 2906 2266 
Q 2828 2175 2409 1742 
Q 1991 1309 1228 531 
z
" transform="scale(0.015625)"/>
       </defs>
       <use xlink:href="#DejaVuSans-32"/>
       <use xlink:href="#DejaVuSans-30" x="63.623047"/>
       <use xlink:href="#DejaVuSans-30" x="127.246094"/>
      </g>
     </g>
    </g>
    <g id="xtick_6">
     <g id="line2d_6">
      <g>
       <use xlink:href="#mefd2ce5d54" x="643.205838" y="167.832" style="stroke: #000000; stroke-width: 0.8"/>
      </g>
     </g>
     <g id="text_6">
      <!-- 250 -->
      <g transform="translate(633.662088 182.430437) scale(0.1 -0.1)">
       <use xlink:href="#DejaVuSans-32"/>
       <use xlink:href="#DejaVuSans-35" x="63.623047"/>
       <use xlink:href="#DejaVuSans-30" x="127.246094"/>
      </g>
     </g>
    </g>
    <g id="xtick_7">
     <g id="line2d_7">
      <g>
       <use xlink:href="#mefd2ce5d54" x="748.283369" y="167.832" style="stroke: #000000; stroke-width: 0.8"/>
      </g>
     </g>
     <g id="text_7">
      <!-- 300 -->
      <g transform="translate(738.739619 182.430437) scale(0.1 -0.1)">
       <defs>
        <path id="DejaVuSans-33" d="M 2597 2516 
Q 3050 2419 3304 2112 
Q 3559 1806 3559 1356 
Q 3559 666 3084 287 
Q 2609 -91 1734 -91 
Q 1441 -91 1130 -33 
Q 819 25 488 141 
L 488 750 
Q 750 597 1062 519 
Q 1375 441 1716 441 
Q 2309 441 2620 675 
Q 2931 909 2931 1356 
Q 2931 1769 2642 2001 
Q 2353 2234 1838 2234 
L 1294 2234 
L 1294 2753 
L 1863 2753 
Q 2328 2753 2575 2939 
Q 2822 3125 2822 3475 
Q 2822 3834 2567 4026 
Q 2313 4219 1838 4219 
Q 1578 4219 1281 4162 
Q 984 4106 628 3988 
L 628 4550 
Q 988 4650 1302 4700 
Q 1616 4750 1894 4750 
Q 2613 4750 3031 4423 
Q 3450 4097 3450 3541 
Q 3450 3153 3228 2886 
Q 3006 2619 2597 2516 
z
" transform="scale(0.015625)"/>
       </defs>
       <use xlink:href="#DejaVuSans-33"/>
       <use xlink:href="#DejaVuSans-30" x="63.623047"/>
       <use xlink:href="#DejaVuSans-30" x="127.246094"/>
      </g>
     </g>
    </g>
   </g>
   <g id="matplotlib.axis_2">
    <g id="ytick_1">
     <g id="line2d_8">
      <defs>
       <path id="m2fa0604559" d="M 0 0 
L -3.5 0 
" style="stroke: #000000; stroke-width: 0.8"/>
      </defs>
      <g>
       <use xlink:href="#m2fa0604559" x="86.4" y="154.669145" style="stroke: #000000; stroke-width: 0.8"/>
      </g>
     </g>
     <g id="text_8">
      <!-- −2 -->
      <g transform="translate(64.657813 158.468364) scale(0.1 -0.1)">
       <defs>
        <path id="DejaVuSans-2212" d="M 678 2272 
L 4684 2272 
L 4684 1741 
L 678 1741 
L 678 2272 
z
" transform="scale(0.015625)"/>
       </defs>
       <use xlink:href="#DejaVuSans-2212"/>
       <use xlink:href="#DejaVuSans-32" x="83.789062"/>
      </g>
     </g>
    </g>
    <g id="ytick_2">
     <g id="line2d_9">
      <g>
       <use xlink:href="#m2fa0604559" x="86.4" y="124.032657" style="stroke: #000000; stroke-width: 0.8"/>
      </g>
     </g>
     <g id="text_9">
      <!-- −1 -->
      <g transform="translate(64.657813 127.831876) scale(0.1 -0.1)">
       <use xlink:href="#DejaVuSans-2212"/>
       <use xlink:href="#DejaVuSans-31" x="83.789062"/>
      </g>
     </g>
    </g>
    <g id="ytick_3">
     <g id="line2d_10">
      <g>
       <use xlink:href="#m2fa0604559" x="86.4" y="93.396169" style="stroke: #000000; stroke-width: 0.8"/>
      </g>
     </g>
     <g id="text_10">
      <!-- 0 -->
      <g transform="translate(73.0375 97.195388) scale(0.1 -0.1)">
       <use xlink:href="#DejaVuSans-30"/>
      </g>
     </g>
    </g>
    <g id="ytick_4">
     <g id="line2d_11">
      <g>
       <use xlink:href="#m2fa0604559" x="86.4" y="62.759682" style="stroke: #000000; stroke-width: 0.8"/>
      </g>
     </g>
     <g id="text_11">
      <!-- 1 -->
      <g transform="translate(73.0375 66.558901) scale(0.1 -0.1)">
       <use xlink:href="#DejaVuSans-31"/>
      </g>
     </g>
    </g>
    <g id="ytick_5">
     <g id="line2d_12">
      <g>
       <use xlink:href="#m2fa0604559" x="86.4" y="32.123194" style="stroke: #000000; stroke-width: 0.8"/>
      </g>
     </g>
     <g id="text_12">
      <!-- 2 -->
      <g transform="translate(73.0375 35.922413) scale(0.1 -0.1)">
       <use xlink:href="#DejaVuSans-32"/>
      </g>
     </g>
    </g>
   </g>
   <g id="line2d_13">
    <path d="M 117.818182 129.970909 
L 122.021283 129.970909 
L 124.122834 132.090001 
L 126.224384 132.796365 
L 130.427486 132.796365 
L 132.529036 138.447272 
L 134.630587 141.272728 
L 138.833688 141.272728 
L 140.935239 137.740911 
L 143.036789 135.621819 
L 147.239891 135.621819 
L 149.341441 113.018182 
L 151.442992 101.716364 
L 155.646093 101.716364 
L 157.747644 69.93 
L 159.849194 53.683638 
L 164.052296 53.683638 
L 166.153846 40.61591 
L 168.255397 33.905453 
L 172.458498 33.905453 
L 174.560049 37.790454 
L 176.661599 39.556363 
L 180.864701 39.556363 
L 182.966251 43.441363 
L 185.067802 45.207272 
L 189.270903 45.207272 
L 191.372454 52.977274 
L 193.474004 56.509091 
L 197.677106 56.509091 
L 199.778656 81.231818 
L 201.880207 93.24 
L 206.083308 93.24 
L 208.184859 106.660909 
L 210.286409 113.018182 
L 214.48951 113.018182 
L 216.591061 116.903182 
L 218.692612 118.669091 
L 231.301915 118.669091 
L 233.403466 120.788182 
L 235.505017 121.494546 
L 239.708118 121.494546 
L 241.809669 127.145456 
L 243.911219 129.970909 
L 248.11432 129.970909 
L 250.215871 133.85591 
L 252.317422 135.621819 
L 256.520523 135.621819 
L 258.622074 122.554091 
L 260.723624 115.843637 
L 264.926725 115.843637 
L 267.028276 85.823182 
L 269.129827 70.636364 
L 273.332928 70.636364 
L 275.434479 48.032728 
L 277.536029 36.73091 
L 281.73913 36.73091 
L 283.840681 33.199092 
L 285.942232 31.08 
L 290.145333 31.08 
L 292.246884 36.73091 
L 294.348434 39.556363 
L 298.551535 39.556363 
L 300.653086 49.092273 
L 302.754637 53.683638 
L 306.957738 53.683638 
L 309.059289 72.755455 
L 311.160839 81.938182 
L 315.36394 81.938182 
L 317.465491 98.890909 
L 319.567042 107.367273 
L 323.770143 107.367273 
L 325.871694 115.137273 
L 327.973244 118.669091 
L 332.176345 118.669091 
L 334.277896 122.554091 
L 336.379447 124.32 
L 340.582548 124.32 
L 342.684099 129.970909 
L 344.785649 132.796365 
L 348.98875 132.796365 
L 351.090301 136.681363 
L 353.191852 138.447272 
L 357.394953 138.447272 
L 359.496503 144.098181 
L 361.598054 146.923637 
L 374.207358 146.923637 
L 376.308908 124.32 
L 378.410459 113.018182 
L 382.61356 113.018182 
L 384.715111 82.997727 
L 386.816662 67.810909 
L 391.019763 67.810909 
L 393.121313 54.743182 
L 395.222864 48.032728 
L 399.425965 48.032728 
L 401.527516 55.802727 
L 403.629067 59.334547 
L 407.832168 59.334547 
L 409.933718 64.985455 
L 412.035269 67.810909 
L 416.23837 67.810909 
L 418.339921 79.112728 
L 420.441472 84.763637 
L 424.644573 84.763637 
L 426.746123 103.835455 
L 428.847674 113.018182 
L 433.050775 113.018182 
L 435.152326 124.32 
L 437.253877 129.970909 
L 441.456978 129.970909 
L 443.558528 133.85591 
L 445.660079 135.621819 
L 449.86318 135.621819 
L 451.964731 137.740911 
L 454.066282 138.447272 
L 458.269383 138.447272 
L 460.370933 140.566364 
L 462.472484 141.272728 
L 466.675585 141.272728 
L 468.777136 149.042726 
L 470.878687 152.574547 
L 475.081788 152.574547 
L 477.183338 158.225456 
L 479.284889 161.050909 
L 483.48799 161.050909 
L 485.589541 147.983182 
L 487.691092 141.272728 
L 491.894193 141.272728 
L 493.995743 109.486364 
L 496.097294 93.24 
L 500.300395 93.24 
L 502.401946 63.219546 
L 504.503497 48.032728 
L 508.706598 48.032728 
L 510.808148 51.917726 
L 512.909699 53.683638 
L 517.1128 53.683638 
L 519.214351 55.802727 
L 521.315901 56.509091 
L 525.519003 56.509091 
L 527.620553 64.279091 
L 529.722104 67.810909 
L 533.925205 67.810909 
L 536.026756 82.997727 
L 538.128306 90.414546 
L 542.331408 90.414546 
L 544.432958 105.601364 
L 546.534509 113.018182 
L 550.73761 113.018182 
L 552.839161 116.903182 
L 554.940711 118.669091 
L 559.143813 118.669091 
L 561.245363 120.788182 
L 563.346914 121.494546 
L 575.956218 121.494546 
L 578.057768 125.379544 
L 580.159319 127.145456 
L 584.36242 127.145456 
L 586.463971 132.796365 
L 588.565521 135.621819 
L 592.768623 135.621819 
L 594.870173 132.090001 
L 596.971724 129.970909 
L 601.174825 129.970909 
L 603.276376 90.414546 
L 605.377926 70.636364 
L 609.581028 70.636364 
L 611.682578 44.500908 
L 613.784129 31.08 
L 617.98723 31.08 
L 620.088781 27.548183 
L 622.190331 25.429091 
L 626.393433 25.429091 
L 628.494983 29.314092 
L 630.596534 31.08 
L 634.799635 31.08 
L 636.901186 34.965001 
L 639.002736 36.73091 
L 643.205838 36.73091 
L 645.307388 48.032728 
L 647.408939 53.683638 
L 651.61204 53.683638 
L 653.713591 70.636364 
L 655.815141 79.112728 
L 660.018243 79.112728 
L 662.119793 92.533637 
L 664.221344 98.890909 
L 668.424445 98.890909 
L 670.525996 106.660909 
L 672.627546 110.192728 
L 676.830648 110.192728 
L 678.932198 114.077728 
L 681.033749 115.843637 
L 685.23685 115.843637 
L 687.338401 121.494546 
L 689.439951 124.32 
L 693.643053 124.32 
L 695.744603 133.85591 
L 697.846154 138.447272 
L 702.049255 138.447272 
L 704.150806 142.332272 
L 706.252356 144.098181 
L 710.455458 144.098181 
L 712.557008 119.728637 
L 714.658559 107.367273 
L 718.86166 107.367273 
L 720.963211 77.346818 
L 723.064761 62.16 
L 727.267863 62.16 
L 729.369413 49.092273 
L 731.470964 42.381819 
L 744.080268 42.381819 
L 746.181818 46.26682 
L 746.181818 46.26682 
" clip-path="url(#p28ce79fb1c)" style="fill: none; stroke: #808080; stroke-opacity: 0.7; stroke-width: 1.5; stroke-linecap: square"/>
   </g>
   <g id="line2d_14">
    <path d="M 117.818182 129.970909 
L 119.919732 129.970909 
L 122.021283 129.970909 
L 124.122834 132.090001 
L 126.224384 132.796365 
L 128.325935 132.796365 
L 130.427486 132.796365 
L 132.529036 138.447272 
L 134.630587 141.272728 
L 136.732137 141.272728 
L 138.833688 141.272728 
L 140.935239 137.740911 
L 143.036789 135.621819 
L 145.13834 135.621819 
L 147.239891 135.621819 
L 149.341441 113.018182 
L 151.442992 101.716364 
L 153.544542 101.716364 
L 155.646093 101.716364 
L 157.747644 69.93 
L 159.849194 53.683638 
L 161.950745 53.683638 
L 164.052296 53.683638 
L 166.153846 40.61591 
L 168.255397 33.905453 
L 170.356947 33.905453 
L 172.458498 33.905453 
L 174.560049 37.790454 
L 176.661599 39.556363 
L 178.76315 39.556363 
L 180.864701 39.556363 
L 182.966251 43.441363 
L 185.067802 45.207272 
L 187.169352 45.207272 
L 189.270903 45.207272 
L 191.372454 52.977274 
L 193.474004 56.509091 
L 195.575555 56.509091 
L 197.677106 56.509091 
L 199.778656 81.231818 
L 201.880207 93.24 
L 203.981757 93.24 
L 206.083308 93.24 
L 208.184859 106.660909 
L 210.286409 113.018182 
L 212.38796 113.018182 
L 214.48951 113.018182 
L 216.591061 116.903182 
L 218.692612 118.669091 
L 220.794162 118.669091 
L 222.895713 118.669091 
L 224.997264 118.669091 
L 227.098814 118.669091 
L 229.200365 118.669091 
" clip-path="url(#p28ce79fb1c)" style="fill: none; stroke: #0000ff; stroke-opacity: 0.2; stroke-width: 6; stroke-linecap: round"/>
   </g>
   <g id="line2d_15">
    <path d="M 117.818182 129.970909 
L 119.919732 129.970909 
L 122.021283 129.970909 
L 124.122834 132.090001 
L 126.224384 132.796365 
L 128.325935 132.796365 
L 130.427486 132.796365 
L 132.529036 138.447272 
L 134.630587 141.272728 
L 136.732137 141.272728 
L 138.833688 141.272728 
L 140.935239 137.740911 
L 143.036789 135.621819 
L 145.13834 135.621819 
L 147.239891 135.621819 
L 149.341441 113.018182 
L 151.442992 101.716364 
L 153.544542 101.716364 
L 155.646093 101.716364 
L 157.747644 69.93 
L 159.849194 53.683638 
L 161.950745 53.683638 
L 164.052296 53.683638 
L 166.153846 40.61591 
L 168.255397 33.905453 
L 170.356947 33.905453 
L 172.458498 33.905453 
L 174.560049 37.790454 
L 176.661599 39.556363 
L 178.76315 39.556363 
L 180.864701 39.556363 
L 182.966251 43.441363 
L 185.067802 45.207272 
L 187.169352 45.207272 
L 189.270903 45.207272 
L 191.372454 52.977274 
L 193.474004 56.509091 
L 195.575555 56.509091 
L 197.677106 56.509091 
L 199.778656 81.231818 
L 201.880207 93.24 
L 203.981757 93.24 
L 206.083308 93.24 
L 208.184859 106.660909 
L 210.286409 113.018182 
L 212.38796 113.018182 
L 214.48951 113.018182 
L 216.591061 116.903182 
L 218.692612 118.669091 
L 220.794162 118.669091 
L 222.895713 118.669091 
L 224.997264 118.669091 
L 227.098814 118.669091 
L 229.200365 118.669091 
" clip-path="url(#p28ce79fb1c)" style="fill: none; stroke: #0000ff; stroke-width: 2.5; stroke-linecap: square"/>
   </g>
   <g id="line2d_16">
    <path d="M 231.301915 118.669091 
L 233.403466 120.788182 
L 235.505017 121.494546 
L 237.606567 121.494546 
L 239.708118 121.494546 
L 241.809669 127.145456 
L 243.911219 129.970909 
L 246.01277 129.970909 
L 248.11432 129.970909 
L 250.215871 133.85591 
L 252.317422 135.621819 
L 254.418972 135.621819 
L 256.520523 135.621819 
L 258.622074 122.554091 
L 260.723624 115.843637 
L 262.825175 115.843637 
L 264.926725 115.843637 
L 267.028276 85.823182 
L 269.129827 70.636364 
L 271.231377 70.636364 
L 273.332928 70.636364 
L 275.434479 48.032728 
L 277.536029 36.73091 
L 279.63758 36.73091 
L 281.73913 36.73091 
L 283.840681 33.199092 
L 285.942232 31.08 
L 288.043782 31.08 
L 290.145333 31.08 
L 292.246884 36.73091 
L 294.348434 39.556363 
L 296.449985 39.556363 
L 298.551535 39.556363 
L 300.653086 49.092273 
L 302.754637 53.683638 
L 304.856187 53.683638 
L 306.957738 53.683638 
L 309.059289 72.755455 
L 311.160839 81.938182 
L 313.26239 81.938182 
L 315.36394 81.938182 
L 317.465491 98.890909 
L 319.567042 107.367273 
L 321.668592 107.367273 
L 323.770143 107.367273 
L 325.871694 115.137273 
L 327.973244 118.669091 
L 330.074795 118.669091 
L 332.176345 118.669091 
L 334.277896 122.554091 
L 336.379447 124.32 
L 338.480997 124.32 
L 340.582548 124.32 
L 342.684099 129.970909 
" clip-path="url(#p28ce79fb1c)" style="fill: none; stroke: #ffa500; stroke-opacity: 0.2; stroke-width: 6; stroke-linecap: round"/>
   </g>
   <g id="line2d_17">
    <path d="M 231.301915 118.669091 
L 233.403466 120.788182 
L 235.505017 121.494546 
L 237.606567 121.494546 
L 239.708118 121.494546 
L 241.809669 127.145456 
L 243.911219 129.970909 
L 246.01277 129.970909 
L 248.11432 129.970909 
L 250.215871 133.85591 
L 252.317422 135.621819 
L 254.418972 135.621819 
L 256.520523 135.621819 
L 258.622074 122.554091 
L 260.723624 115.843637 
L 262.825175 115.843637 
L 264.926725 115.843637 
L 267.028276 85.823182 
L 269.129827 70.636364 
L 271.231377 70.636364 
L 273.332928 70.636364 
L 275.434479 48.032728 
L 277.536029 36.73091 
L 279.63758 36.73091 
L 281.73913 36.73091 
L 283.840681 33.199092 
L 285.942232 31.08 
L 288.043782 31.08 
L 290.145333 31.08 
L 292.246884 36.73091 
L 294.348434 39.556363 
L 296.449985 39.556363 
L 298.551535 39.556363 
L 300.653086 49.092273 
L 302.754637 53.683638 
L 304.856187 53.683638 
L 306.957738 53.683638 
L 309.059289 72.755455 
L 311.160839 81.938182 
L 313.26239 81.938182 
L 315.36394 81.938182 
L 317.465491 98.890909 
L 319.567042 107.367273 
L 321.668592 107.367273 
L 323.770143 107.367273 
L 325.871694 115.137273 
L 327.973244 118.669091 
L 330.074795 118.669091 
L 332.176345 118.669091 
L 334.277896 122.554091 
L 336.379447 124.32 
L 338.480997 124.32 
L 340.582548 124.32 
L 342.684099 129.970909 
" clip-path="url(#p28ce79fb1c)" style="fill: none; stroke: #ffa500; stroke-width: 2.5; stroke-linecap: square"/>
   </g>
   <g id="line2d_18">
    <path d="M 344.785649 132.796365 
L 346.8872 132.796365 
L 348.98875 132.796365 
L 351.090301 136.681363 
L 353.191852 138.447272 
L 355.293402 138.447272 
L 357.394953 138.447272 
L 359.496503 144.098181 
L 361.598054 146.923637 
L 363.699605 146.923637 
L 365.801155 146.923637 
L 367.902706 146.923637 
L 370.004257 146.923637 
L 372.105807 146.923637 
L 374.207358 146.923637 
L 376.308908 124.32 
L 378.410459 113.018182 
L 380.51201 113.018182 
L 382.61356 113.018182 
L 384.715111 82.997727 
L 386.816662 67.810909 
L 388.918212 67.810909 
L 391.019763 67.810909 
L 393.121313 54.743182 
L 395.222864 48.032728 
L 397.324415 48.032728 
L 399.425965 48.032728 
L 401.527516 55.802727 
L 403.629067 59.334547 
L 405.730617 59.334547 
L 407.832168 59.334547 
L 409.933718 64.985455 
L 412.035269 67.810909 
L 414.13682 67.810909 
L 416.23837 67.810909 
L 418.339921 79.112728 
L 420.441472 84.763637 
L 422.543022 84.763637 
L 424.644573 84.763637 
L 426.746123 103.835455 
L 428.847674 113.018182 
L 430.949225 113.018182 
L 433.050775 113.018182 
L 435.152326 124.32 
L 437.253877 129.970909 
L 439.355427 129.970909 
L 441.456978 129.970909 
L 443.558528 133.85591 
L 445.660079 135.621819 
L 447.76163 135.621819 
L 449.86318 135.621819 
L 451.964731 137.740911 
L 454.066282 138.447272 
L 456.167832 138.447272 
" clip-path="url(#p28ce79fb1c)" style="fill: none; stroke: #800080; stroke-opacity: 0.2; stroke-width: 6; stroke-linecap: round"/>
   </g>
   <g id="line2d_19">
    <path d="M 344.785649 132.796365 
L 346.8872 132.796365 
L 348.98875 132.796365 
L 351.090301 136.681363 
L 353.191852 138.447272 
L 355.293402 138.447272 
L 357.394953 138.447272 
L 359.496503 144.098181 
L 361.598054 146.923637 
L 363.699605 146.923637 
L 365.801155 146.923637 
L 367.902706 146.923637 
L 370.004257 146.923637 
L 372.105807 146.923637 
L 374.207358 146.923637 
L 376.308908 124.32 
L 378.410459 113.018182 
L 380.51201 113.018182 
L 382.61356 113.018182 
L 384.715111 82.997727 
L 386.816662 67.810909 
L 388.918212 67.810909 
L 391.019763 67.810909 
L 393.121313 54.743182 
L 395.222864 48.032728 
L 397.324415 48.032728 
L 399.425965 48.032728 
L 401.527516 55.802727 
L 403.629067 59.334547 
L 405.730617 59.334547 
L 407.832168 59.334547 
L 409.933718 64.985455 
L 412.035269 67.810909 
L 414.13682 67.810909 
L 416.23837 67.810909 
L 418.339921 79.112728 
L 420.441472 84.763637 
L 422.543022 84.763637 
L 424.644573 84.763637 
L 426.746123 103.835455 
L 428.847674 113.018182 
L 430.949225 113.018182 
L 433.050775 113.018182 
L 435.152326 124.32 
L 437.253877 129.970909 
L 439.355427 129.970909 
L 441.456978 129.970909 
L 443.558528 133.85591 
L 445.660079 135.621819 
L 447.76163 135.621819 
L 449.86318 135.621819 
L 451.964731 137.740911 
L 454.066282 138.447272 
L 456.167832 138.447272 
" clip-path="url(#p28ce79fb1c)" style="fill: none; stroke: #800080; stroke-width: 2.5; stroke-linecap: square"/>
   </g>
   <g id="patch_3">
    <path d="M 86.4 167.832 
L 86.4 18.648 
" style="fill: none; stroke: #000000; stroke-width: 0.8; stroke-linejoin: miter; stroke-linecap: square"/>
   </g>
   <g id="patch_4">
    <path d="M 777.6 167.832 
L 777.6 18.648 
" style="fill: none; stroke: #000000; stroke-width: 0.8; stroke-linejoin: miter; stroke-linecap: square"/>
   </g>
   <g id="patch_5">
    <path d="M 86.4 167.832 
L 777.6 167.832 
" style="fill: none; stroke: #000000; stroke-width: 0.8; stroke-linejoin: miter; stroke-linecap: square"/>
   </g>
   <g id="patch_6">
    <path d="M 86.4 18.648 
L 777.6 18.648 
" style="fill: none; stroke: #000000; stroke-width: 0.8; stroke-linejoin: miter; stroke-linecap: square"/>
   </g>
   <g id="text_13">
    <!-- Pulsus Paradoxus subsequences -->
    <g transform="translate(271.054688 12.648) scale(0.2 -0.2)">
     <defs>
      <path id="DejaVuSans-50" d="M 1259 4147 
L 1259 2394 
L 2053 2394 
Q 2494 2394 2734 2622 
Q 2975 2850 2975 3272 
Q 2975 3691 2734 3919 
Q 2494 4147 2053 4147 
L 1259 4147 
z
M 628 4666 
L 2053 4666 
Q 2838 4666 3239 4311 
Q 3641 3956 3641 3272 
Q 3641 2581 3239 2228 
Q 2838 1875 2053 1875 
L 1259 1875 
L 1259 0 
L 628 0 
L 628 4666 
z
" transform="scale(0.015625)"/>
      <path id="DejaVuSans-75" d="M 544 1381 
L 544 3500 
L 1119 3500 
L 1119 1403 
Q 1119 906 1312 657 
Q 1506 409 1894 409 
Q 2359 409 2629 706 
Q 2900 1003 2900 1516 
L 2900 3500 
L 3475 3500 
L 3475 0 
L 2900 0 
L 2900 538 
Q 2691 219 2414 64 
Q 2138 -91 1772 -91 
Q 1169 -91 856 284 
Q 544 659 544 1381 
z
M 1991 3584 
L 1991 3584 
z
" transform="scale(0.015625)"/>
      <path id="DejaVuSans-6c" d="M 603 4863 
L 1178 4863 
L 1178 0 
L 603 0 
L 603 4863 
z
" transform="scale(0.015625)"/>
      <path id="DejaVuSans-73" d="M 2834 3397 
L 2834 2853 
Q 2591 2978 2328 3040 
Q 2066 3103 1784 3103 
Q 1356 3103 1142 2972 
Q 928 2841 928 2578 
Q 928 2378 1081 2264 
Q 1234 2150 1697 2047 
L 1894 2003 
Q 2506 1872 2764 1633 
Q 3022 1394 3022 966 
Q 3022 478 2636 193 
Q 2250 -91 1575 -91 
Q 1294 -91 989 -36 
Q 684 19 347 128 
L 347 722 
Q 666 556 975 473 
Q 1284 391 1588 391 
Q 1994 391 2212 530 
Q 2431 669 2431 922 
Q 2431 1156 2273 1281 
Q 2116 1406 1581 1522 
L 1381 1569 
Q 847 1681 609 1914 
Q 372 2147 372 2553 
Q 372 3047 722 3315 
Q 1072 3584 1716 3584 
Q 2034 3584 2315 3537 
Q 2597 3491 2834 3397 
z
" transform="scale(0.015625)"/>
      <path id="DejaVuSans-20" transform="scale(0.015625)"/>
      <path id="DejaVuSans-61" d="M 2194 1759 
Q 1497 1759 1228 1600 
Q 959 1441 959 1056 
Q 959 750 1161 570 
Q 1363 391 1709 391 
Q 2188 391 2477 730 
Q 2766 1069 2766 1631 
L 2766 1759 
L 2194 1759 
z
M 3341 1997 
L 3341 0 
L 2766 0 
L 2766 531 
Q 2569 213 2275 61 
Q 1981 -91 1556 -91 
Q 1019 -91 701 211 
Q 384 513 384 1019 
Q 384 1609 779 1909 
Q 1175 2209 1959 2209 
L 2766 2209 
L 2766 2266 
Q 2766 2663 2505 2880 
Q 2244 3097 1772 3097 
Q 1472 3097 1187 3025 
Q 903 2953 641 2809 
L 641 3341 
Q 956 3463 1253 3523 
Q 1550 3584 1831 3584 
Q 2591 3584 2966 3190 
Q 3341 2797 3341 1997 
z
" transform="scale(0.015625)"/>
      <path id="DejaVuSans-72" d="M 2631 2963 
Q 2534 3019 2420 3045 
Q 2306 3072 2169 3072 
Q 1681 3072 1420 2755 
Q 1159 2438 1159 1844 
L 1159 0 
L 581 0 
L 581 3500 
L 1159 3500 
L 1159 2956 
Q 1341 3275 1631 3429 
Q 1922 3584 2338 3584 
Q 2397 3584 2469 3576 
Q 2541 3569 2628 3553 
L 2631 2963 
z
" transform="scale(0.015625)"/>
      <path id="DejaVuSans-64" d="M 2906 2969 
L 2906 4863 
L 3481 4863 
L 3481 0 
L 2906 0 
L 2906 525 
Q 2725 213 2448 61 
Q 2172 -91 1784 -91 
Q 1150 -91 751 415 
Q 353 922 353 1747 
Q 353 2572 751 3078 
Q 1150 3584 1784 3584 
Q 2172 3584 2448 3432 
Q 2725 3281 2906 2969 
z
M 947 1747 
Q 947 1113 1208 752 
Q 1469 391 1925 391 
Q 2381 391 2643 752 
Q 2906 1113 2906 1747 
Q 2906 2381 2643 2742 
Q 2381 3103 1925 3103 
Q 1469 3103 1208 2742 
Q 947 2381 947 1747 
z
" transform="scale(0.015625)"/>
      <path id="DejaVuSans-6f" d="M 1959 3097 
Q 1497 3097 1228 2736 
Q 959 2375 959 1747 
Q 959 1119 1226 758 
Q 1494 397 1959 397 
Q 2419 397 2687 759 
Q 2956 1122 2956 1747 
Q 2956 2369 2687 2733 
Q 2419 3097 1959 3097 
z
M 1959 3584 
Q 2709 3584 3137 3096 
Q 3566 2609 3566 1747 
Q 3566 888 3137 398 
Q 2709 -91 1959 -91 
Q 1206 -91 779 398 
Q 353 888 353 1747 
Q 353 2609 779 3096 
Q 1206 3584 1959 3584 
z
" transform="scale(0.015625)"/>
      <path id="DejaVuSans-78" d="M 3513 3500 
L 2247 1797 
L 3578 0 
L 2900 0 
L 1881 1375 
L 863 0 
L 184 0 
L 1544 1831 
L 300 3500 
L 978 3500 
L 1906 2253 
L 2834 3500 
L 3513 3500 
z
" transform="scale(0.015625)"/>
      <path id="DejaVuSans-62" d="M 3116 1747 
Q 3116 2381 2855 2742 
Q 2594 3103 2138 3103 
Q 1681 3103 1420 2742 
Q 1159 2381 1159 1747 
Q 1159 1113 1420 752 
Q 1681 391 2138 391 
Q 2594 391 2855 752 
Q 3116 1113 3116 1747 
z
M 1159 2969 
Q 1341 3281 1617 3432 
Q 1894 3584 2278 3584 
Q 2916 3584 3314 3078 
Q 3713 2572 3713 1747 
Q 3713 922 3314 415 
Q 2916 -91 2278 -91 
Q 1894 -91 1617 61 
Q 1341 213 1159 525 
L 1159 0 
L 581 0 
L 581 4863 
L 1159 4863 
L 1159 2969 
z
" transform="scale(0.015625)"/>
      <path id="DejaVuSans-65" d="M 3597 1894 
L 3597 1613 
L 953 1613 
Q 991 1019 1311 708 
Q 1631 397 2203 397 
Q 2534 397 2845 478 
Q 3156 559 3463 722 
L 3463 178 
Q 3153 47 2828 -22 
Q 2503 -91 2169 -91 
Q 1331 -91 842 396 
Q 353 884 353 1716 
Q 353 2575 817 3079 
Q 1281 3584 2069 3584 
Q 2775 3584 3186 3129 
Q 3597 2675 3597 1894 
z
M 3022 2063 
Q 3016 2534 2758 2815 
Q 2500 3097 2075 3097 
Q 1594 3097 1305 2825 
Q 1016 2553 972 2059 
L 3022 2063 
z
" transform="scale(0.015625)"/>
      <path id="DejaVuSans-71" d="M 947 1747 
Q 947 1113 1208 752 
Q 1469 391 1925 391 
Q 2381 391 2643 752 
Q 2906 1113 2906 1747 
Q 2906 2381 2643 2742 
Q 2381 3103 1925 3103 
Q 1469 3103 1208 2742 
Q 947 2381 947 1747 
z
M 2906 525 
Q 2725 213 2448 61 
Q 2172 -91 1784 -91 
Q 1150 -91 751 415 
Q 353 922 353 1747 
Q 353 2572 751 3078 
Q 1150 3584 1784 3584 
Q 2172 3584 2448 3432 
Q 2725 3281 2906 2969 
L 2906 3500 
L 3481 3500 
L 3481 -1331 
L 2906 -1331 
L 2906 525 
z
" transform="scale(0.015625)"/>
      <path id="DejaVuSans-6e" d="M 3513 2113 
L 3513 0 
L 2938 0 
L 2938 2094 
Q 2938 2591 2744 2837 
Q 2550 3084 2163 3084 
Q 1697 3084 1428 2787 
Q 1159 2491 1159 1978 
L 1159 0 
L 581 0 
L 581 3500 
L 1159 3500 
L 1159 2956 
Q 1366 3272 1645 3428 
Q 1925 3584 2291 3584 
Q 2894 3584 3203 3211 
Q 3513 2838 3513 2113 
z
" transform="scale(0.015625)"/>
      <path id="DejaVuSans-63" d="M 3122 3366 
L 3122 2828 
Q 2878 2963 2633 3030 
Q 2388 3097 2138 3097 
Q 1578 3097 1268 2742 
Q 959 2388 959 1747 
Q 959 1106 1268 751 
Q 1578 397 2138 397 
Q 2388 397 2633 464 
Q 2878 531 3122 666 
L 3122 134 
Q 2881 22 2623 -34 
Q 2366 -91 2075 -91 
Q 1284 -91 818 406 
Q 353 903 353 1747 
Q 353 2603 823 3093 
Q 1294 3584 2113 3584 
Q 2378 3584 2631 3529 
Q 2884 3475 3122 3366 
z
" transform="scale(0.015625)"/>
     </defs>
     <use xlink:href="#DejaVuSans-50"/>
     <use xlink:href="#DejaVuSans-75" x="58.552734"/>
     <use xlink:href="#DejaVuSans-6c" x="121.931641"/>
     <use xlink:href="#DejaVuSans-73" x="149.714844"/>
     <use xlink:href="#DejaVuSans-75" x="201.814453"/>
     <use xlink:href="#DejaVuSans-73" x="265.193359"/>
     <use xlink:href="#DejaVuSans-20" x="317.292969"/>
     <use xlink:href="#DejaVuSans-50" x="349.080078"/>
     <use xlink:href="#DejaVuSans-61" x="404.882812"/>
     <use xlink:href="#DejaVuSans-72" x="466.162109"/>
     <use xlink:href="#DejaVuSans-61" x="507.275391"/>
     <use xlink:href="#DejaVuSans-64" x="568.554688"/>
     <use xlink:href="#DejaVuSans-6f" x="632.03125"/>
     <use xlink:href="#DejaVuSans-78" x="690.087891"/>
     <use xlink:href="#DejaVuSans-75" x="749.267578"/>
     <use xlink:href="#DejaVuSans-73" x="812.646484"/>
     <use xlink:href="#DejaVuSans-20" x="864.746094"/>
     <use xlink:href="#DejaVuSans-73" x="896.533203"/>
     <use xlink:href="#DejaVuSans-75" x="948.632812"/>
     <use xlink:href="#DejaVuSans-62" x="1012.011719"/>
     <use xlink:href="#DejaVuSans-73" x="1075.488281"/>
     <use xlink:href="#DejaVuSans-65" x="1127.587891"/>
     <use xlink:href="#DejaVuSans-71" x="1189.111328"/>
     <use xlink:href="#DejaVuSans-75" x="1252.587891"/>
     <use xlink:href="#DejaVuSans-65" x="1315.966797"/>
     <use xlink:href="#DejaVuSans-6e" x="1377.490234"/>
     <use xlink:href="#DejaVuSans-63" x="1440.869141"/>
     <use xlink:href="#DejaVuSans-65" x="1495.849609"/>
     <use xlink:href="#DejaVuSans-73" x="1557.373047"/>
    </g>
   </g>
   <g id="legend_1">
    <g id="patch_7">
     <path d="M 822.76875 129.24 
L 1120.2 129.24 
Q 1123.2 129.24 1123.2 126.24 
L 1123.2 60.24 
Q 1123.2 57.24 1120.2 57.24 
L 822.76875 57.24 
Q 819.76875 57.24 819.76875 60.24 
L 819.76875 126.24 
Q 819.76875 129.24 822.76875 129.24 
z
" style="fill: #ffffff; opacity: 0.8; stroke: #cccccc; stroke-linejoin: miter"/>
    </g>
    <g id="line2d_20">
     <path d="M 825.76875 69.453281 
L 840.76875 69.453281 
L 855.76875 69.453281 
" style="fill: none; stroke: #0000ff; stroke-width: 2.5; stroke-linecap: square"/>
    </g>
    <g id="text_14">
     <!-- Subsequence 0_54 | [0:54] -->
     <g transform="translate(867.76875 74.703281) scale(0.15 -0.15)">
      <defs>
       <path id="DejaVuSans-53" d="M 3425 4513 
L 3425 3897 
Q 3066 4069 2747 4153 
Q 2428 4238 2131 4238 
Q 1616 4238 1336 4038 
Q 1056 3838 1056 3469 
Q 1056 3159 1242 3001 
Q 1428 2844 1947 2747 
L 2328 2669 
Q 3034 2534 3370 2195 
Q 3706 1856 3706 1288 
Q 3706 609 3251 259 
Q 2797 -91 1919 -91 
Q 1588 -91 1214 -16 
Q 841 59 441 206 
L 441 856 
Q 825 641 1194 531 
Q 1563 422 1919 422 
Q 2459 422 2753 634 
Q 3047 847 3047 1241 
Q 3047 1584 2836 1778 
Q 2625 1972 2144 2069 
L 1759 2144 
Q 1053 2284 737 2584 
Q 422 2884 422 3419 
Q 422 4038 858 4394 
Q 1294 4750 2059 4750 
Q 2388 4750 2728 4690 
Q 3069 4631 3425 4513 
z
" transform="scale(0.015625)"/>
       <path id="DejaVuSans-5f" d="M 3263 -1063 
L 3263 -1509 
L -63 -1509 
L -63 -1063 
L 3263 -1063 
z
" transform="scale(0.015625)"/>
       <path id="DejaVuSans-34" d="M 2419 4116 
L 825 1625 
L 2419 1625 
L 2419 4116 
z
M 2253 4666 
L 3047 4666 
L 3047 1625 
L 3713 1625 
L 3713 1100 
L 3047 1100 
L 3047 0 
L 2419 0 
L 2419 1100 
L 313 1100 
L 313 1709 
L 2253 4666 
z
" transform="scale(0.015625)"/>
       <path id="DejaVuSans-7c" d="M 1344 4891 
L 1344 -1509 
L 813 -1509 
L 813 4891 
L 1344 4891 
z
" transform="scale(0.015625)"/>
       <path id="DejaVuSans-5b" d="M 550 4863 
L 1875 4863 
L 1875 4416 
L 1125 4416 
L 1125 -397 
L 1875 -397 
L 1875 -844 
L 550 -844 
L 550 4863 
z
" transform="scale(0.015625)"/>
       <path id="DejaVuSans-3a" d="M 750 794 
L 1409 794 
L 1409 0 
L 750 0 
L 750 794 
z
M 750 3309 
L 1409 3309 
L 1409 2516 
L 750 2516 
L 750 3309 
z
" transform="scale(0.015625)"/>
       <path id="DejaVuSans-5d" d="M 1947 4863 
L 1947 -844 
L 622 -844 
L 622 -397 
L 1369 -397 
L 1369 4416 
L 622 4416 
L 622 4863 
L 1947 4863 
z
" transform="scale(0.015625)"/>
      </defs>
      <use xlink:href="#DejaVuSans-53"/>
      <use xlink:href="#DejaVuSans-75" x="63.476562"/>
      <use xlink:href="#DejaVuSans-62" x="126.855469"/>
      <use xlink:href="#DejaVuSans-73" x="190.332031"/>
      <use xlink:href="#DejaVuSans-65" x="242.431641"/>
      <use xlink:href="#DejaVuSans-71" x="303.955078"/>
      <use xlink:href="#DejaVuSans-75" x="367.431641"/>
      <use xlink:href="#DejaVuSans-65" x="430.810547"/>
      <use xlink:href="#DejaVuSans-6e" x="492.333984"/>
      <use xlink:href="#DejaVuSans-63" x="555.712891"/>
      <use xlink:href="#DejaVuSans-65" x="610.693359"/>
      <use xlink:href="#DejaVuSans-20" x="672.216797"/>
      <use xlink:href="#DejaVuSans-30" x="704.003906"/>
      <use xlink:href="#DejaVuSans-5f" x="767.626953"/>
      <use xlink:href="#DejaVuSans-35" x="817.626953"/>
      <use xlink:href="#DejaVuSans-34" x="881.25"/>
      <use xlink:href="#DejaVuSans-20" x="944.873047"/>
      <use xlink:href="#DejaVuSans-7c" x="976.660156"/>
      <use xlink:href="#DejaVuSans-20" x="1010.351562"/>
      <use xlink:href="#DejaVuSans-5b" x="1042.138672"/>
      <use xlink:href="#DejaVuSans-30" x="1081.152344"/>
      <use xlink:href="#DejaVuSans-3a" x="1144.775391"/>
      <use xlink:href="#DejaVuSans-35" x="1178.466797"/>
      <use xlink:href="#DejaVuSans-34" x="1242.089844"/>
      <use xlink:href="#DejaVuSans-5d" x="1305.712891"/>
     </g>
    </g>
    <g id="line2d_21">
     <path d="M 825.76875 91.953281 
L 840.76875 91.953281 
L 855.76875 91.953281 
" style="fill: none; stroke: #ffa500; stroke-width: 2.5; stroke-linecap: square"/>
    </g>
    <g id="text_15">
     <!-- Subsequence 54_54 | [54:108] -->
     <g transform="translate(867.76875 97.203281) scale(0.15 -0.15)">
      <defs>
       <path id="DejaVuSans-38" d="M 2034 2216 
Q 1584 2216 1326 1975 
Q 1069 1734 1069 1313 
Q 1069 891 1326 650 
Q 1584 409 2034 409 
Q 2484 409 2743 651 
Q 3003 894 3003 1313 
Q 3003 1734 2745 1975 
Q 2488 2216 2034 2216 
z
M 1403 2484 
Q 997 2584 770 2862 
Q 544 3141 544 3541 
Q 544 4100 942 4425 
Q 1341 4750 2034 4750 
Q 2731 4750 3128 4425 
Q 3525 4100 3525 3541 
Q 3525 3141 3298 2862 
Q 3072 2584 2669 2484 
Q 3125 2378 3379 2068 
Q 3634 1759 3634 1313 
Q 3634 634 3220 271 
Q 2806 -91 2034 -91 
Q 1263 -91 848 271 
Q 434 634 434 1313 
Q 434 1759 690 2068 
Q 947 2378 1403 2484 
z
M 1172 3481 
Q 1172 3119 1398 2916 
Q 1625 2713 2034 2713 
Q 2441 2713 2670 2916 
Q 2900 3119 2900 3481 
Q 2900 3844 2670 4047 
Q 2441 4250 2034 4250 
Q 1625 4250 1398 4047 
Q 1172 3844 1172 3481 
z
" transform="scale(0.015625)"/>
      </defs>
      <use xlink:href="#DejaVuSans-53"/>
      <use xlink:href="#DejaVuSans-75" x="63.476562"/>
      <use xlink:href="#DejaVuSans-62" x="126.855469"/>
      <use xlink:href="#DejaVuSans-73" x="190.332031"/>
      <use xlink:href="#DejaVuSans-65" x="242.431641"/>
      <use xlink:href="#DejaVuSans-71" x="303.955078"/>
      <use xlink:href="#DejaVuSans-75" x="367.431641"/>
      <use xlink:href="#DejaVuSans-65" x="430.810547"/>
      <use xlink:href="#DejaVuSans-6e" x="492.333984"/>
      <use xlink:href="#DejaVuSans-63" x="555.712891"/>
      <use xlink:href="#DejaVuSans-65" x="610.693359"/>
      <use xlink:href="#DejaVuSans-20" x="672.216797"/>
      <use xlink:href="#DejaVuSans-35" x="704.003906"/>
      <use xlink:href="#DejaVuSans-34" x="767.626953"/>
      <use xlink:href="#DejaVuSans-5f" x="831.25"/>
      <use xlink:href="#DejaVuSans-35" x="881.25"/>
      <use xlink:href="#DejaVuSans-34" x="944.873047"/>
      <use xlink:href="#DejaVuSans-20" x="1008.496094"/>
      <use xlink:href="#DejaVuSans-7c" x="1040.283203"/>
      <use xlink:href="#DejaVuSans-20" x="1073.974609"/>
      <use xlink:href="#DejaVuSans-5b" x="1105.761719"/>
      <use xlink:href="#DejaVuSans-35" x="1144.775391"/>
      <use xlink:href="#DejaVuSans-34" x="1208.398438"/>
      <use xlink:href="#DejaVuSans-3a" x="1272.021484"/>
      <use xlink:href="#DejaVuSans-31" x="1305.712891"/>
      <use xlink:href="#DejaVuSans-30" x="1369.335938"/>
      <use xlink:href="#DejaVuSans-38" x="1432.958984"/>
      <use xlink:href="#DejaVuSans-5d" x="1496.582031"/>
     </g>
    </g>
    <g id="line2d_22">
     <path d="M 825.76875 114.453281 
L 840.76875 114.453281 
L 855.76875 114.453281 
" style="fill: none; stroke: #800080; stroke-width: 2.5; stroke-linecap: square"/>
    </g>
    <g id="text_16">
     <!-- Subsequence 108_54 | [108:162] -->
     <g transform="translate(867.76875 119.703281) scale(0.15 -0.15)">
      <defs>
       <path id="DejaVuSans-36" d="M 2113 2584 
Q 1688 2584 1439 2293 
Q 1191 2003 1191 1497 
Q 1191 994 1439 701 
Q 1688 409 2113 409 
Q 2538 409 2786 701 
Q 3034 994 3034 1497 
Q 3034 2003 2786 2293 
Q 2538 2584 2113 2584 
z
M 3366 4563 
L 3366 3988 
Q 3128 4100 2886 4159 
Q 2644 4219 2406 4219 
Q 1781 4219 1451 3797 
Q 1122 3375 1075 2522 
Q 1259 2794 1537 2939 
Q 1816 3084 2150 3084 
Q 2853 3084 3261 2657 
Q 3669 2231 3669 1497 
Q 3669 778 3244 343 
Q 2819 -91 2113 -91 
Q 1303 -91 875 529 
Q 447 1150 447 2328 
Q 447 3434 972 4092 
Q 1497 4750 2381 4750 
Q 2619 4750 2861 4703 
Q 3103 4656 3366 4563 
z
" transform="scale(0.015625)"/>
      </defs>
      <use xlink:href="#DejaVuSans-53"/>
      <use xlink:href="#DejaVuSans-75" x="63.476562"/>
      <use xlink:href="#DejaVuSans-62" x="126.855469"/>
      <use xlink:href="#DejaVuSans-73" x="190.332031"/>
      <use xlink:href="#DejaVuSans-65" x="242.431641"/>
      <use xlink:href="#DejaVuSans-71" x="303.955078"/>
      <use xlink:href="#DejaVuSans-75" x="367.431641"/>
      <use xlink:href="#DejaVuSans-65" x="430.810547"/>
      <use xlink:href="#DejaVuSans-6e" x="492.333984"/>
      <use xlink:href="#DejaVuSans-63" x="555.712891"/>
      <use xlink:href="#DejaVuSans-65" x="610.693359"/>
      <use xlink:href="#DejaVuSans-20" x="672.216797"/>
      <use xlink:href="#DejaVuSans-31" x="704.003906"/>
      <use xlink:href="#DejaVuSans-30" x="767.626953"/>
      <use xlink:href="#DejaVuSans-38" x="831.25"/>
      <use xlink:href="#DejaVuSans-5f" x="894.873047"/>
      <use xlink:href="#DejaVuSans-35" x="944.873047"/>
      <use xlink:href="#DejaVuSans-34" x="1008.496094"/>
      <use xlink:href="#DejaVuSans-20" x="1072.119141"/>
      <use xlink:href="#DejaVuSans-7c" x="1103.90625"/>
      <use xlink:href="#DejaVuSans-20" x="1137.597656"/>
      <use xlink:href="#DejaVuSans-5b" x="1169.384766"/>
      <use xlink:href="#DejaVuSans-31" x="1208.398438"/>
      <use xlink:href="#DejaVuSans-30" x="1272.021484"/>
      <use xlink:href="#DejaVuSans-38" x="1335.644531"/>
      <use xlink:href="#DejaVuSans-3a" x="1399.267578"/>
      <use xlink:href="#DejaVuSans-31" x="1432.958984"/>
      <use xlink:href="#DejaVuSans-36" x="1496.582031"/>
      <use xlink:href="#DejaVuSans-32" x="1560.205078"/>
      <use xlink:href="#DejaVuSans-5d" x="1623.828125"/>
     </g>
    </g>
   </g>
  </g>
 </g>
 <defs>
  <clipPath id="p28ce79fb1c">
   <rect x="86.4" y="18.648" width="691.2" height="149.184"/>
  </clipPath>
 </defs>
</svg>
